<svg width="448" height="449" viewBox="0 0 448 449" fill="none" xmlns="http://www.w3.org/2000/svg">
<path fill-rule="evenodd" clip-rule="evenodd" d="M190.5 371C290.187 371 371 290.187 371 190.5C371 90.8126 290.187 10 190.5 10C90.8126 10 10 90.8126 10 190.5C10 290.187 90.8126 371 190.5 371ZM190.5 381C295.71 381 381 295.71 381 190.5C381 85.2898 295.71 0 190.5 0C85.2898 0 0 85.2898 0 190.5C0 295.71 85.2898 381 190.5 381Z" fill="url(#paint0_linear_2021_597)" fill-opacity="0.15"/>
<path fill-rule="evenodd" clip-rule="evenodd" d="M112.307 97.3129C60.8414 140.498 54.1284 217.227 97.3134 268.693C140.498 320.159 217.228 326.872 268.694 283.687C320.159 240.502 326.872 163.773 283.687 112.307C240.503 60.841 163.773 54.128 112.307 97.3129ZM109.093 93.4827C55.5121 138.443 48.5232 218.326 93.4831 271.907C138.443 325.488 218.326 332.477 271.908 287.517C325.489 242.557 332.478 162.674 287.518 109.093C242.558 55.5117 162.674 48.5228 109.093 93.4827Z" fill="url(#paint1_linear_2021_597)" fill-opacity="0.15"/>
<path fill-rule="evenodd" clip-rule="evenodd" d="M153.659 146.593C129.41 166.941 126.247 203.093 146.594 227.342C166.941 251.591 203.094 254.753 227.342 234.406C251.591 214.059 254.754 177.907 234.407 153.658C214.06 129.409 177.907 126.246 153.659 146.593ZM150.445 142.763C124.08 164.885 120.642 204.191 142.764 230.556C164.886 256.92 204.192 260.359 230.556 238.236C256.921 216.114 260.359 176.808 238.237 150.444C216.115 124.08 176.809 120.641 150.445 142.763Z" fill="url(#paint2_linear_2021_597)" fill-opacity="0.15"/>
<g filter="url(#filter0_b_2021_597)">
<rect x="35.9961" y="309" width="262" height="140" rx="20" fill="url(#paint3_linear_2021_597)"/>
</g>
<path d="M65.4382 340.288C65.4382 340.885 65.2942 341.445 65.0062 341.968C64.7288 342.491 64.2862 342.912 63.6782 343.232C63.0808 343.552 62.3235 343.712 61.4062 343.712H59.5342V348H57.2942V336.832H61.4062C62.2702 336.832 63.0062 336.981 63.6142 337.28C64.2222 337.579 64.6755 337.989 64.9742 338.512C65.2835 339.035 65.4382 339.627 65.4382 340.288ZM61.3102 341.904C61.9288 341.904 62.3875 341.765 62.6862 341.488C62.9848 341.2 63.1342 340.8 63.1342 340.288C63.1342 339.2 62.5262 338.656 61.3102 338.656H59.5342V341.904H61.3102ZM66.6125 343.536C66.6125 342.64 66.7885 341.845 67.1405 341.152C67.5032 340.459 67.9885 339.925 68.5965 339.552C69.2152 339.179 69.9032 338.992 70.6605 338.992C71.3219 338.992 71.8979 339.125 72.3885 339.392C72.8899 339.659 73.2899 339.995 73.5885 340.4V339.136H75.8445V348H73.5885V346.704C73.3005 347.12 72.9005 347.467 72.3885 347.744C71.8872 348.011 71.3059 348.144 70.6445 348.144C69.8979 348.144 69.2152 347.952 68.5965 347.568C67.9885 347.184 67.5032 346.645 67.1405 345.952C66.7885 345.248 66.6125 344.443 66.6125 343.536ZM73.5885 343.568C73.5885 343.024 73.4819 342.56 73.2685 342.176C73.0552 341.781 72.7672 341.483 72.4045 341.28C72.0419 341.067 71.6525 340.96 71.2365 340.96C70.8205 340.96 70.4365 341.061 70.0845 341.264C69.7325 341.467 69.4445 341.765 69.2205 342.16C69.0072 342.544 68.9005 343.003 68.9005 343.536C68.9005 344.069 69.0072 344.539 69.2205 344.944C69.4445 345.339 69.7325 345.643 70.0845 345.856C70.4472 346.069 70.8312 346.176 71.2365 346.176C71.6525 346.176 72.0419 346.075 72.4045 345.872C72.7672 345.659 73.0552 345.36 73.2685 344.976C73.4819 344.581 73.5885 344.112 73.5885 343.568ZM86.6723 339.136L81.1843 352.192H78.8003L80.7203 347.776L77.1683 339.136H79.6803L81.9683 345.328L84.2883 339.136H86.6723ZM104.188 336.832V348H101.948V340.736L98.9563 348H97.2603L94.2523 340.736V348H92.0123V336.832H94.5563L98.1083 345.136L101.66 336.832H104.188ZM114.803 343.376C114.803 343.696 114.782 343.984 114.739 344.24H108.259C108.312 344.88 108.536 345.381 108.931 345.744C109.326 346.107 109.811 346.288 110.387 346.288C111.219 346.288 111.811 345.931 112.163 345.216H114.579C114.323 346.069 113.832 346.773 113.107 347.328C112.382 347.872 111.491 348.144 110.435 348.144C109.582 348.144 108.814 347.957 108.131 347.584C107.459 347.2 106.931 346.661 106.547 345.968C106.174 345.275 105.987 344.475 105.987 343.568C105.987 342.651 106.174 341.845 106.547 341.152C106.92 340.459 107.443 339.925 108.115 339.552C108.787 339.179 109.56 338.992 110.435 338.992C111.278 338.992 112.03 339.173 112.691 339.536C113.363 339.899 113.88 340.416 114.243 341.088C114.616 341.749 114.803 342.512 114.803 343.376ZM112.483 342.736C112.472 342.16 112.264 341.701 111.859 341.36C111.454 341.008 110.958 340.832 110.371 340.832C109.816 340.832 109.347 341.003 108.963 341.344C108.59 341.675 108.36 342.139 108.275 342.736H112.483ZM119.206 340.976V345.264C119.206 345.563 119.275 345.781 119.414 345.92C119.563 346.048 119.809 346.112 120.15 346.112H121.19V348H119.782C117.894 348 116.95 347.083 116.95 345.248V340.976H115.894V339.136H116.95V336.944H119.206V339.136H121.19V340.976H119.206ZM127.953 339.008C128.625 339.008 129.222 339.157 129.745 339.456C130.268 339.744 130.673 340.176 130.961 340.752C131.26 341.317 131.409 342 131.409 342.8V348H129.169V343.104C129.169 342.4 128.993 341.861 128.641 341.488C128.289 341.104 127.809 340.912 127.201 340.912C126.582 340.912 126.092 341.104 125.729 341.488C125.377 341.861 125.201 342.4 125.201 343.104V348H122.961V336.16H125.201V340.24C125.489 339.856 125.873 339.557 126.353 339.344C126.833 339.12 127.366 339.008 127.953 339.008ZM137.635 348.144C136.782 348.144 136.014 347.957 135.331 347.584C134.648 347.2 134.11 346.661 133.715 345.968C133.331 345.275 133.139 344.475 133.139 343.568C133.139 342.661 133.336 341.861 133.731 341.168C134.136 340.475 134.686 339.941 135.379 339.568C136.072 339.184 136.846 338.992 137.699 338.992C138.552 338.992 139.326 339.184 140.019 339.568C140.712 339.941 141.256 340.475 141.651 341.168C142.056 341.861 142.259 342.661 142.259 343.568C142.259 344.475 142.051 345.275 141.635 345.968C141.23 346.661 140.675 347.2 139.971 347.584C139.278 347.957 138.499 348.144 137.635 348.144ZM137.635 346.192C138.04 346.192 138.419 346.096 138.771 345.904C139.134 345.701 139.422 345.403 139.635 345.008C139.848 344.613 139.955 344.133 139.955 343.568C139.955 342.725 139.731 342.08 139.283 341.632C138.846 341.173 138.307 340.944 137.667 340.944C137.027 340.944 136.488 341.173 136.051 341.632C135.624 342.08 135.411 342.725 135.411 343.568C135.411 344.411 135.619 345.061 136.035 345.52C136.462 345.968 136.995 346.192 137.635 346.192ZM143.486 343.536C143.486 342.64 143.662 341.845 144.014 341.152C144.377 340.459 144.868 339.925 145.486 339.552C146.105 339.179 146.793 338.992 147.55 338.992C148.126 338.992 148.676 339.12 149.198 339.376C149.721 339.621 150.137 339.952 150.446 340.368V336.16H152.718V348H150.446V346.688C150.169 347.125 149.78 347.477 149.278 347.744C148.777 348.011 148.196 348.144 147.534 348.144C146.788 348.144 146.105 347.952 145.486 347.568C144.868 347.184 144.377 346.645 144.014 345.952C143.662 345.248 143.486 344.443 143.486 343.536ZM150.462 343.568C150.462 343.024 150.356 342.56 150.142 342.176C149.929 341.781 149.641 341.483 149.278 341.28C148.916 341.067 148.526 340.96 148.11 340.96C147.694 340.96 147.31 341.061 146.958 341.264C146.606 341.467 146.318 341.765 146.094 342.16C145.881 342.544 145.774 343.003 145.774 343.536C145.774 344.069 145.881 344.539 146.094 344.944C146.318 345.339 146.606 345.643 146.958 345.856C147.321 346.069 147.705 346.176 148.11 346.176C148.526 346.176 148.916 346.075 149.278 345.872C149.641 345.659 149.929 345.36 150.142 344.976C150.356 344.581 150.462 344.112 150.462 343.568Z" fill="white"/>
<rect x="55.9961" y="371" width="48" height="48" rx="10" fill="url(#paint4_linear_2021_597)"/>
<rect x="55.9961" y="371" width="48" height="48" rx="10" fill="white"/>
<rect x="113.996" y="371" width="48" height="48" rx="10" fill="url(#paint5_linear_2021_597)"/>
<rect x="113.996" y="371" width="48" height="48" rx="10" fill="white"/>
<rect x="171.996" y="371" width="48" height="48" rx="10" fill="url(#paint6_linear_2021_597)"/>
<rect x="171.996" y="371" width="48" height="48" rx="10" fill="white"/>
<rect x="229.996" y="371" width="48" height="48" rx="10" fill="url(#paint7_linear_2021_597)"/>
<rect x="229.996" y="371" width="48" height="48" rx="10" fill="white"/>
<path d="M74.8138 408.357L75.3046 405.24L74.2114 405.215H68.9912L72.6189 382.212C72.6297 382.142 72.6654 382.078 72.7195 382.032C72.7736 381.986 72.8425 381.961 72.9136 381.961H81.7155C84.6376 381.961 86.6541 382.569 87.707 383.769C88.2006 384.332 88.5149 384.921 88.6669 385.568C88.8265 386.247 88.8293 387.059 88.6735 388.049L88.6622 388.121V388.756L89.1558 389.035C89.5326 389.226 89.8713 389.484 90.1552 389.797C90.5775 390.279 90.8505 390.89 90.9659 391.616C91.0851 392.362 91.0457 393.25 90.8505 394.255C90.6253 395.411 90.2612 396.417 89.7695 397.241C89.3357 397.979 88.7524 398.619 88.057 399.118C87.4039 399.582 86.6279 399.934 85.7505 400.159C84.9003 400.38 83.931 400.492 82.8678 400.492H82.1828C81.693 400.492 81.2172 400.668 80.8438 400.984C80.4708 401.304 80.2234 401.746 80.1456 402.231L80.094 402.511L79.2269 408.005L79.1875 408.207C79.1772 408.271 79.1594 408.303 79.1331 408.324C79.1077 408.345 79.0759 408.357 79.043 408.357H74.8138Z" fill="#253B80"/>
<path d="M89.6233 388.195C89.597 388.362 89.567 388.534 89.5332 388.711C88.3725 394.67 84.4013 396.729 79.3294 396.729H76.747C76.1267 396.729 75.6041 397.179 75.5074 397.791L74.1853 406.176L73.8108 408.553C73.7959 408.648 73.8016 408.744 73.8275 408.836C73.8535 408.928 73.899 409.013 73.9609 409.086C74.0229 409.158 74.0999 409.216 74.1866 409.256C74.2733 409.296 74.3676 409.317 74.463 409.317H79.0432C79.5856 409.317 80.0463 408.923 80.1317 408.388L80.1767 408.156L81.0391 402.683L81.0945 402.383C81.1789 401.846 81.6406 401.452 82.183 401.452H82.868C87.3055 401.452 90.7794 399.65 91.7947 394.437C92.2188 392.259 91.9993 390.44 90.877 389.161C90.5213 388.765 90.0964 388.438 89.6233 388.195Z" fill="#179BD7"/>
<path d="M88.4094 387.71C88.0388 387.603 87.6618 387.519 87.2806 387.46C86.5274 387.344 85.7661 387.288 85.0041 387.294H78.1052C77.8427 387.293 77.5887 387.387 77.3892 387.558C77.1898 387.729 77.058 387.965 77.0176 388.225L75.55 397.52L75.5078 397.791C75.5535 397.495 75.7037 397.226 75.931 397.031C76.1584 396.836 76.448 396.729 76.7474 396.729H79.3298C84.4017 396.729 88.3729 394.669 89.5336 388.711C89.5683 388.534 89.5974 388.362 89.6237 388.195C89.3174 388.034 88.9982 387.899 88.6694 387.792C88.5832 387.763 88.4965 387.736 88.4094 387.71Z" fill="#222D65"/>
<path d="M77.0175 388.225C77.0575 387.965 77.1892 387.728 77.3888 387.558C77.5883 387.387 77.8425 387.294 78.1051 387.295H85.004C85.8213 387.295 86.5842 387.348 87.2804 387.461C87.7516 387.535 88.2163 387.646 88.6702 387.792C89.0127 387.906 89.3308 388.04 89.6245 388.195C89.9698 385.992 89.6217 384.493 88.4309 383.135C87.1181 381.64 84.7487 381 81.7168 381H72.9149C72.2956 381 71.7673 381.45 71.6716 382.063L68.0054 405.302C67.9883 405.41 67.9948 405.52 68.0244 405.625C68.0541 405.73 68.1061 405.828 68.177 405.911C68.2479 405.994 68.3359 406.061 68.4351 406.107C68.5343 406.153 68.6422 406.176 68.7514 406.177H74.1855L75.5499 397.52L77.0175 388.225Z" fill="#253B80"/>
<g clip-path="url(#clip0_2021_597)">
<path d="M142.495 383C141.216 383.089 139.72 383.908 138.849 384.974C138.054 385.942 137.4 387.379 137.655 388.775C139.053 388.819 140.497 387.98 141.334 386.896C142.117 385.886 142.71 384.458 142.495 383Z" fill="#B9B9B9"/>
<path d="M147.551 391.052C146.323 389.512 144.596 388.618 142.966 388.618C140.813 388.618 139.903 389.648 138.407 389.648C136.865 389.648 135.694 388.621 133.832 388.621C132.004 388.621 130.057 389.738 128.823 391.649C127.087 394.34 127.384 399.399 130.197 403.709C131.203 405.251 132.547 406.985 134.305 407C135.869 407.015 136.31 405.996 138.43 405.986C140.549 405.974 140.951 407.013 142.513 406.997C144.272 406.983 145.69 405.062 146.696 403.52C147.418 402.414 147.686 401.858 148.246 400.61C144.176 399.06 143.524 393.274 147.551 391.052Z" fill="#B9B9B9"/>
</g>
<g clip-path="url(#clip1_2021_597)">
<path d="M191.729 399.597L193.355 390.454H195.895L194.32 399.597H191.729Z" fill="#3C58BF"/>
<path d="M191.729 399.597L193.812 390.454H195.895L194.32 399.597H191.729Z" fill="#293688"/>
<path d="M203.514 390.556C203.006 390.352 202.193 390.149 201.177 390.149C198.637 390.149 196.809 391.419 196.809 393.248C196.809 394.619 198.079 395.33 199.095 395.787C200.11 396.245 200.415 396.549 200.415 396.956C200.415 397.565 199.603 397.87 198.891 397.87C197.876 397.87 197.317 397.718 196.453 397.362L196.098 397.21L195.742 399.292C196.352 399.546 197.469 399.8 198.637 399.8C201.329 399.8 203.107 398.53 203.107 396.6C203.107 395.533 202.447 394.721 200.923 394.06C200.009 393.603 199.45 393.349 199.45 392.892C199.45 392.486 199.907 392.079 200.923 392.079C201.787 392.079 202.396 392.232 202.853 392.435L203.107 392.537L203.514 390.556Z" fill="#3C58BF"/>
<path d="M203.514 390.556C203.006 390.352 202.193 390.149 201.177 390.149C198.637 390.149 197.266 391.419 197.266 393.248C197.266 394.619 198.079 395.33 199.095 395.787C200.11 396.245 200.415 396.549 200.415 396.956C200.415 397.565 199.603 397.87 198.891 397.87C197.876 397.87 197.317 397.718 196.453 397.362L196.098 397.21L195.742 399.292C196.352 399.546 197.469 399.8 198.637 399.8C201.329 399.8 203.107 398.53 203.107 396.6C203.107 395.533 202.447 394.721 200.923 394.06C200.009 393.603 199.45 393.349 199.45 392.892C199.45 392.486 199.907 392.079 200.923 392.079C201.787 392.079 202.396 392.232 202.853 392.435L203.107 392.537L203.514 390.556Z" fill="#293688"/>
<path d="M207.882 390.454C207.273 390.454 206.815 390.505 206.561 391.114L202.752 399.597H205.495L206.003 398.073H209.254L209.558 399.597H211.996L209.863 390.454H207.882ZM206.714 396.549C206.866 396.092 207.73 393.857 207.73 393.857C207.73 393.857 207.933 393.298 208.085 392.943L208.238 393.806C208.238 393.806 208.746 396.092 208.847 396.6H206.714V396.549Z" fill="#3C58BF"/>
<path d="M208.492 390.454C207.882 390.454 207.425 390.505 207.171 391.114L202.752 399.597H205.495L206.003 398.073H209.254L209.558 399.597H211.996L209.863 390.454H208.492ZM206.714 396.549C206.917 396.041 207.73 393.857 207.73 393.857C207.73 393.857 207.933 393.298 208.085 392.943L208.238 393.806C208.238 393.806 208.746 396.092 208.847 396.6H206.714V396.549Z" fill="#293688"/>
<path d="M187.057 396.854L186.803 395.533C186.345 394.01 184.872 392.333 183.247 391.521L185.533 399.648H188.276L192.39 390.505H189.647L187.057 396.854Z" fill="#3C58BF"/>
<path d="M187.057 396.854L186.803 395.533C186.345 394.01 184.872 392.333 183.247 391.521L185.533 399.648H188.276L192.39 390.505H190.155L187.057 396.854Z" fill="#293688"/>
<path d="M179.996 390.454L180.453 390.556C183.704 391.317 185.939 393.248 186.802 395.533L185.888 391.216C185.736 390.606 185.279 390.454 184.72 390.454H179.996Z" fill="#FFBC00"/>
<path d="M179.996 390.454C183.247 391.216 185.939 393.197 186.802 395.483L185.939 391.876C185.787 391.267 185.279 390.911 184.72 390.911L179.996 390.454Z" fill="#F7981D"/>
<path d="M179.996 390.454C183.247 391.216 185.939 393.197 186.802 395.483L186.193 393.502C186.041 392.892 185.837 392.283 185.126 392.029L179.996 390.454Z" fill="#ED7C00"/>
<path d="M189.596 396.549L187.869 394.822L187.057 396.752L186.853 395.483C186.396 393.959 184.923 392.283 183.298 391.47L185.584 399.597H188.326L189.596 396.549Z" fill="#051244"/>
<path d="M194.32 399.597L192.136 397.362L191.729 399.597H194.32Z" fill="#051244"/>
<path d="M200.161 396.448C200.364 396.651 200.466 396.803 200.415 397.006C200.415 397.616 199.603 397.921 198.891 397.921C197.876 397.921 197.317 397.768 196.453 397.413L196.098 397.26L195.742 399.343C196.352 399.597 197.469 399.851 198.637 399.851C200.263 399.851 201.583 399.394 202.345 398.581L200.161 396.448Z" fill="#051244"/>
<path d="M203.107 399.597H205.495L206.003 398.073H209.253L209.558 399.597H211.996L211.133 395.889L208.085 392.943L208.238 393.756C208.238 393.756 208.746 396.041 208.847 396.549H206.714C206.917 396.041 207.73 393.857 207.73 393.857C207.73 393.857 207.933 393.298 208.085 392.943" fill="#051244"/>
</g>
<path d="M243.473 391.737C243.467 391.682 243.418 391.658 243.382 391.658C243.346 391.658 242.556 391.598 242.556 391.598C242.556 391.598 242.007 391.049 241.94 390.995C241.88 390.934 241.765 390.952 241.717 390.965C241.711 390.965 241.597 391.001 241.41 391.061C241.223 390.524 240.903 390.036 240.33 390.036H240.275C240.119 389.83 239.914 389.734 239.745 389.734C238.418 389.734 237.778 391.393 237.579 392.237C237.06 392.4 236.692 392.509 236.65 392.527C236.361 392.617 236.355 392.623 236.318 392.895C236.288 393.1 235.534 398.933 235.534 398.933L241.404 400.031L244.589 399.343C244.595 399.331 243.479 391.791 243.473 391.737ZM241.084 391.145C240.939 391.188 240.764 391.242 240.589 391.302V391.194C240.589 390.868 240.547 390.603 240.469 390.391C240.77 390.428 240.957 390.759 241.084 391.145ZM240.101 390.458C240.179 390.663 240.233 390.952 240.233 391.351V391.411C239.908 391.513 239.564 391.616 239.208 391.731C239.407 390.971 239.787 390.597 240.101 390.458ZM239.714 390.084C239.775 390.084 239.835 390.108 239.883 390.144C239.455 390.343 239.003 390.844 238.816 391.857C238.532 391.948 238.261 392.026 238.001 392.111C238.219 391.339 238.761 390.084 239.714 390.084Z" fill="#95BF47"/>
<path d="M243.382 391.646C243.346 391.646 242.556 391.586 242.556 391.586C242.556 391.586 242.007 391.037 241.941 390.983C241.917 390.959 241.886 390.946 241.862 390.946L241.422 400.031L244.607 399.343C244.607 399.343 243.491 391.791 243.485 391.737C243.461 391.682 243.419 391.658 243.382 391.646Z" fill="#5E8E3E"/>
<path d="M240.331 393.408L239.945 394.572C239.945 394.572 239.595 394.385 239.179 394.385C238.557 394.385 238.527 394.777 238.527 394.873C238.527 395.404 239.914 395.609 239.914 396.858C239.914 397.841 239.293 398.475 238.455 398.475C237.441 398.475 236.935 397.847 236.935 397.847L237.206 396.954C237.206 396.954 237.737 397.413 238.183 397.413C238.479 397.413 238.599 397.184 238.599 397.015C238.599 396.321 237.465 396.291 237.465 395.145C237.465 394.186 238.153 393.257 239.547 393.257C240.065 393.251 240.331 393.408 240.331 393.408Z" fill="white"/>
<path d="M248.305 395.597C247.985 395.428 247.822 395.278 247.822 395.078C247.822 394.825 248.052 394.662 248.408 394.662C248.824 394.662 249.192 394.831 249.192 394.831L249.481 393.944C249.481 393.944 249.216 393.739 248.432 393.739C247.34 393.739 246.58 394.367 246.58 395.247C246.58 395.748 246.936 396.128 247.406 396.4C247.792 396.611 247.925 396.768 247.925 396.997C247.925 397.232 247.732 397.425 247.376 397.425C246.851 397.425 246.351 397.154 246.351 397.154L246.043 398.04C246.043 398.04 246.501 398.348 247.274 398.348C248.396 398.348 249.21 397.793 249.21 396.798C249.198 396.255 248.794 395.881 248.305 395.597ZM252.781 393.727C252.226 393.727 251.792 393.993 251.46 394.391L251.448 394.385L251.93 391.875H250.682L249.463 398.27H250.712L251.128 396.086C251.291 395.259 251.719 394.747 252.117 394.747C252.401 394.747 252.51 394.94 252.51 395.211C252.51 395.38 252.497 395.597 252.455 395.766L251.985 398.27H253.233L253.722 395.688C253.776 395.416 253.812 395.091 253.812 394.867C253.806 394.15 253.438 393.727 252.781 393.727ZM256.636 393.727C255.127 393.727 254.132 395.085 254.132 396.599C254.132 397.564 254.729 398.348 255.851 398.348C257.329 398.348 258.325 397.027 258.325 395.477C258.331 394.578 257.812 393.727 256.636 393.727ZM256.02 397.395C255.592 397.395 255.417 397.033 255.417 396.574C255.417 395.857 255.785 394.692 256.467 394.692C256.907 394.692 257.058 395.078 257.058 395.446C257.058 396.213 256.678 397.395 256.02 397.395ZM261.528 393.727C260.683 393.727 260.207 394.475 260.207 394.475H260.195L260.267 393.806H259.157C259.103 394.258 259 394.952 258.904 395.465L258.041 400.043H259.29L259.64 398.191H259.67C259.67 398.191 259.929 398.354 260.4 398.354C261.872 398.354 262.831 396.846 262.831 395.326C262.825 394.481 262.445 393.727 261.528 393.727ZM260.333 397.407C260.008 397.407 259.815 397.22 259.815 397.22L260.02 396.056C260.164 395.272 260.575 394.759 261.009 394.759C261.395 394.759 261.51 395.115 261.51 395.446C261.516 396.255 261.033 397.407 260.333 397.407ZM264.61 391.936C264.212 391.936 263.892 392.255 263.892 392.66C263.892 393.028 264.128 393.287 264.483 393.287H264.496C264.888 393.287 265.219 393.022 265.225 392.563C265.231 392.195 264.984 391.936 264.61 391.936ZM262.861 398.263H264.109L264.954 393.824H263.699L262.861 398.263ZM268.139 393.818H267.27L267.313 393.613C267.385 393.184 267.638 392.81 268.061 392.81C268.284 392.81 268.459 392.877 268.459 392.877L268.7 391.893C268.7 391.893 268.489 391.785 268.018 391.785C267.578 391.785 267.132 391.912 266.794 392.201C266.366 392.563 266.166 393.088 266.07 393.619L266.034 393.824H265.449L265.262 394.771H265.847L265.183 398.27H266.432L267.095 394.771H267.958L268.139 393.818ZM271.149 393.824C271.149 393.824 270.365 395.796 270.021 396.876H270.009C269.985 396.526 269.701 393.824 269.701 393.824H268.386L269.14 397.889C269.152 397.98 269.146 398.034 269.11 398.095C268.965 398.378 268.718 398.65 268.429 398.849C268.193 399.018 267.928 399.132 267.717 399.205L268.067 400.266C268.32 400.212 268.851 400.001 269.291 399.585C269.858 399.054 270.389 398.227 270.932 397.105L272.458 393.818H271.149V393.824Z" fill="black"/>
<rect x="191.996" y="38.0001" width="256" height="238" rx="20" fill="#C4C4C4" fill-opacity="0.4"/>
<rect x="191.996" y="38.0001" width="256" height="238" rx="20" fill="url(#paint8_linear_2021_597)"/>
<rect x="276.996" y="235" width="28" height="21" rx="5" fill="url(#paint9_linear_2021_597)"/>
<path d="M288.836 242.08V249H287.926V243.84L285.626 249H284.986L282.676 243.83V249H281.766V242.08H282.746L285.306 247.8L287.866 242.08H288.836ZM290.039 246.24C290.039 245.68 290.153 245.19 290.379 244.77C290.606 244.343 290.916 244.013 291.309 243.78C291.709 243.547 292.153 243.43 292.639 243.43C293.119 243.43 293.536 243.533 293.889 243.74C294.243 243.947 294.506 244.207 294.679 244.52V243.52H295.599V249H294.679V247.98C294.499 248.3 294.229 248.567 293.869 248.78C293.516 248.987 293.103 249.09 292.629 249.09C292.143 249.09 291.703 248.97 291.309 248.73C290.916 248.49 290.606 248.153 290.379 247.72C290.153 247.287 290.039 246.793 290.039 246.24ZM294.679 246.25C294.679 245.837 294.596 245.477 294.429 245.17C294.263 244.863 294.036 244.63 293.749 244.47C293.469 244.303 293.159 244.22 292.819 244.22C292.479 244.22 292.169 244.3 291.889 244.46C291.609 244.62 291.386 244.853 291.219 245.16C291.053 245.467 290.969 245.827 290.969 246.24C290.969 246.66 291.053 247.027 291.219 247.34C291.386 247.647 291.609 247.883 291.889 248.05C292.169 248.21 292.479 248.29 292.819 248.29C293.159 248.29 293.469 248.21 293.749 248.05C294.036 247.883 294.263 247.647 294.429 247.34C294.596 247.027 294.679 246.663 294.679 246.25ZM298.047 244.41C298.207 244.097 298.434 243.853 298.727 243.68C299.027 243.507 299.391 243.42 299.817 243.42V244.36H299.577C298.557 244.36 298.047 244.913 298.047 246.02V249H297.137V243.52H298.047V244.41Z" fill="#14101D"/>
<path d="M226.276 242.03V247.18C226.276 247.753 226.099 248.213 225.746 248.56C225.393 248.9 224.926 249.07 224.346 249.07C223.759 249.07 223.289 248.897 222.936 248.55C222.583 248.197 222.406 247.717 222.406 247.11H223.316C223.323 247.45 223.409 247.727 223.576 247.94C223.749 248.153 224.006 248.26 224.346 248.26C224.686 248.26 224.939 248.16 225.106 247.96C225.273 247.753 225.356 247.493 225.356 247.18V242.03H226.276ZM227.729 246.24C227.729 245.68 227.842 245.19 228.069 244.77C228.295 244.343 228.605 244.013 228.999 243.78C229.399 243.547 229.842 243.43 230.329 243.43C230.809 243.43 231.225 243.533 231.579 243.74C231.932 243.947 232.195 244.207 232.369 244.52V243.52H233.289V249H232.369V247.98C232.189 248.3 231.919 248.567 231.559 248.78C231.205 248.987 230.792 249.09 230.319 249.09C229.832 249.09 229.392 248.97 228.999 248.73C228.605 248.49 228.295 248.153 228.069 247.72C227.842 247.287 227.729 246.793 227.729 246.24ZM232.369 246.25C232.369 245.837 232.285 245.477 232.119 245.17C231.952 244.863 231.725 244.63 231.439 244.47C231.159 244.303 230.849 244.22 230.509 244.22C230.169 244.22 229.859 244.3 229.579 244.46C229.299 244.62 229.075 244.853 228.909 245.16C228.742 245.467 228.659 245.827 228.659 246.24C228.659 246.66 228.742 247.027 228.909 247.34C229.075 247.647 229.299 247.883 229.579 248.05C229.859 248.21 230.169 248.29 230.509 248.29C230.849 248.29 231.159 248.21 231.439 248.05C231.725 247.883 231.952 247.647 232.119 247.34C232.285 247.027 232.369 246.663 232.369 246.25ZM237.497 243.42C238.163 243.42 238.703 243.623 239.117 244.03C239.53 244.43 239.737 245.01 239.737 245.77V249H238.837V245.9C238.837 245.353 238.7 244.937 238.427 244.65C238.153 244.357 237.78 244.21 237.307 244.21C236.827 244.21 236.443 244.36 236.157 244.66C235.877 244.96 235.737 245.397 235.737 245.97V249H234.827V243.52H235.737V244.3C235.917 244.02 236.16 243.803 236.467 243.65C236.78 243.497 237.123 243.42 237.497 243.42Z" fill="white" fill-opacity="0.7"/>
<path d="M256.706 242.03V242.77H253.676V245.12H256.136V245.86H253.676V249H252.766V242.03H256.706ZM262.805 246.05C262.805 246.223 262.795 246.407 262.775 246.6H258.395C258.428 247.14 258.612 247.563 258.945 247.87C259.285 248.17 259.695 248.32 260.175 248.32C260.568 248.32 260.895 248.23 261.155 248.05C261.422 247.863 261.608 247.617 261.715 247.31H262.695C262.548 247.837 262.255 248.267 261.815 248.6C261.375 248.927 260.828 249.09 260.175 249.09C259.655 249.09 259.188 248.973 258.775 248.74C258.368 248.507 258.048 248.177 257.815 247.75C257.582 247.317 257.465 246.817 257.465 246.25C257.465 245.683 257.578 245.187 257.805 244.76C258.032 244.333 258.348 244.007 258.755 243.78C259.168 243.547 259.642 243.43 260.175 243.43C260.695 243.43 261.155 243.543 261.555 243.77C261.955 243.997 262.262 244.31 262.475 244.71C262.695 245.103 262.805 245.55 262.805 246.05ZM261.865 245.86C261.865 245.513 261.788 245.217 261.635 244.97C261.482 244.717 261.272 244.527 261.005 244.4C260.745 244.267 260.455 244.2 260.135 244.2C259.675 244.2 259.282 244.347 258.955 244.64C258.635 244.933 258.452 245.34 258.405 245.86H261.865ZM264.916 244.54C265.103 244.213 265.376 243.947 265.736 243.74C266.096 243.533 266.506 243.43 266.966 243.43C267.46 243.43 267.903 243.547 268.296 243.78C268.69 244.013 269 244.343 269.226 244.77C269.453 245.19 269.566 245.68 269.566 246.24C269.566 246.793 269.453 247.287 269.226 247.72C269 248.153 268.686 248.49 268.286 248.73C267.893 248.97 267.453 249.09 266.966 249.09C266.493 249.09 266.076 248.987 265.716 248.78C265.363 248.573 265.096 248.31 264.916 247.99V249H264.006V241.6H264.916V244.54ZM268.636 246.24C268.636 245.827 268.553 245.467 268.386 245.16C268.22 244.853 267.993 244.62 267.706 244.46C267.426 244.3 267.116 244.22 266.776 244.22C266.443 244.22 266.133 244.303 265.846 244.47C265.566 244.63 265.34 244.867 265.166 245.18C265 245.487 264.916 245.843 264.916 246.25C264.916 246.663 265 247.027 265.166 247.34C265.34 247.647 265.566 247.883 265.846 248.05C266.133 248.21 266.443 248.29 266.776 248.29C267.116 248.29 267.426 248.21 267.706 248.05C267.993 247.883 268.22 247.647 268.386 247.34C268.553 247.027 268.636 246.66 268.636 246.24Z" fill="white" fill-opacity="0.7"/>
<path d="M316.886 247.45H313.846L313.286 249H312.326L314.846 242.07H315.896L318.406 249H317.446L316.886 247.45ZM316.626 246.71L315.366 243.19L314.106 246.71H316.626ZM320.414 244.53C320.594 244.217 320.861 243.957 321.214 243.75C321.574 243.537 321.991 243.43 322.464 243.43C322.951 243.43 323.391 243.547 323.784 243.78C324.184 244.013 324.498 244.343 324.724 244.77C324.951 245.19 325.064 245.68 325.064 246.24C325.064 246.793 324.951 247.287 324.724 247.72C324.498 248.153 324.184 248.49 323.784 248.73C323.391 248.97 322.951 249.09 322.464 249.09C321.998 249.09 321.584 248.987 321.224 248.78C320.871 248.567 320.601 248.303 320.414 247.99V251.6H319.504V243.52H320.414V244.53ZM324.134 246.24C324.134 245.827 324.051 245.467 323.884 245.16C323.718 244.853 323.491 244.62 323.204 244.46C322.924 244.3 322.614 244.22 322.274 244.22C321.941 244.22 321.631 244.303 321.344 244.47C321.064 244.63 320.838 244.867 320.664 245.18C320.498 245.487 320.414 245.843 320.414 246.25C320.414 246.663 320.498 247.027 320.664 247.34C320.838 247.647 321.064 247.883 321.344 248.05C321.631 248.21 321.941 248.29 322.274 248.29C322.614 248.29 322.924 248.21 323.204 248.05C323.491 247.883 323.718 247.647 323.884 247.34C324.051 247.027 324.134 246.66 324.134 246.24ZM327.172 244.41C327.332 244.097 327.559 243.853 327.852 243.68C328.152 243.507 328.516 243.42 328.942 243.42V244.36H328.702C327.682 244.36 327.172 244.913 327.172 246.02V249H326.262V243.52H327.172V244.41Z" fill="white" fill-opacity="0.7"/>
<path d="M347.836 242.08V249H346.926V243.84L344.626 249H343.986L341.676 243.83V249H340.766V242.08H341.746L344.306 247.8L346.866 242.08H347.836ZM349.039 246.24C349.039 245.68 349.153 245.19 349.379 244.77C349.606 244.343 349.916 244.013 350.309 243.78C350.709 243.547 351.153 243.43 351.639 243.43C352.119 243.43 352.536 243.533 352.889 243.74C353.243 243.947 353.506 244.207 353.679 244.52V243.52H354.599V249H353.679V247.98C353.499 248.3 353.229 248.567 352.869 248.78C352.516 248.987 352.103 249.09 351.629 249.09C351.143 249.09 350.703 248.97 350.309 248.73C349.916 248.49 349.606 248.153 349.379 247.72C349.153 247.287 349.039 246.793 349.039 246.24ZM353.679 246.25C353.679 245.837 353.596 245.477 353.429 245.17C353.263 244.863 353.036 244.63 352.749 244.47C352.469 244.303 352.159 244.22 351.819 244.22C351.479 244.22 351.169 244.3 350.889 244.46C350.609 244.62 350.386 244.853 350.219 245.16C350.053 245.467 349.969 245.827 349.969 246.24C349.969 246.66 350.053 247.027 350.219 247.34C350.386 247.647 350.609 247.883 350.889 248.05C351.169 248.21 351.479 248.29 351.819 248.29C352.159 248.29 352.469 248.21 352.749 248.05C353.036 247.883 353.263 247.647 353.429 247.34C353.596 247.027 353.679 246.663 353.679 246.25ZM360.857 243.52L357.557 251.58H356.617L357.697 248.94L355.487 243.52H356.497L358.217 247.96L359.917 243.52H360.857Z" fill="white" fill-opacity="0.7"/>
<path d="M377.276 242.03V247.18C377.276 247.753 377.099 248.213 376.746 248.56C376.393 248.9 375.926 249.07 375.346 249.07C374.759 249.07 374.289 248.897 373.936 248.55C373.583 248.197 373.406 247.717 373.406 247.11H374.316C374.323 247.45 374.409 247.727 374.576 247.94C374.749 248.153 375.006 248.26 375.346 248.26C375.686 248.26 375.939 248.16 376.106 247.96C376.273 247.753 376.356 247.493 376.356 247.18V242.03H377.276ZM383.929 243.52V249H383.019V248.19C382.845 248.47 382.602 248.69 382.289 248.85C381.982 249.003 381.642 249.08 381.269 249.08C380.842 249.08 380.459 248.993 380.119 248.82C379.779 248.64 379.509 248.373 379.309 248.02C379.115 247.667 379.019 247.237 379.019 246.73V243.52H379.919V246.61C379.919 247.15 380.055 247.567 380.329 247.86C380.602 248.147 380.975 248.29 381.449 248.29C381.935 248.29 382.319 248.14 382.599 247.84C382.879 247.54 383.019 247.103 383.019 246.53V243.52H383.929ZM388.135 243.42C388.802 243.42 389.342 243.623 389.755 244.03C390.169 244.43 390.375 245.01 390.375 245.77V249H389.475V245.9C389.475 245.353 389.339 244.937 389.065 244.65C388.792 244.357 388.419 244.21 387.945 244.21C387.465 244.21 387.082 244.36 386.795 244.66C386.515 244.96 386.375 245.397 386.375 245.97V249H385.465V243.52H386.375V244.3C386.555 244.02 386.799 243.803 387.105 243.65C387.419 243.497 387.762 243.42 388.135 243.42Z" fill="white" fill-opacity="0.7"/>
<path d="M408.276 242.03V247.18C408.276 247.753 408.099 248.213 407.746 248.56C407.393 248.9 406.926 249.07 406.346 249.07C405.759 249.07 405.289 248.897 404.936 248.55C404.583 248.197 404.406 247.717 404.406 247.11H405.316C405.323 247.45 405.409 247.727 405.576 247.94C405.749 248.153 406.006 248.26 406.346 248.26C406.686 248.26 406.939 248.16 407.106 247.96C407.273 247.753 407.356 247.493 407.356 247.18V242.03H408.276ZM414.929 243.52V249H414.019V248.19C413.845 248.47 413.602 248.69 413.289 248.85C412.982 249.003 412.642 249.08 412.269 249.08C411.842 249.08 411.459 248.993 411.119 248.82C410.779 248.64 410.509 248.373 410.309 248.02C410.115 247.667 410.019 247.237 410.019 246.73V243.52H410.919V246.61C410.919 247.15 411.055 247.567 411.329 247.86C411.602 248.147 411.975 248.29 412.449 248.29C412.935 248.29 413.319 248.14 413.599 247.84C413.879 247.54 414.019 247.103 414.019 246.53V243.52H414.929ZM417.375 241.6V249H416.465V241.6H417.375Z" fill="white" fill-opacity="0.7"/>
<path d="M211.996 148.408C215.792 148.408 218.069 147.49 221.717 148.408C228.089 150.01 227.598 156.673 233.725 158.888C239.299 160.903 243.325 158.061 249.164 159.387C262.309 162.373 261.035 177.89 274.323 180.348C279.566 181.318 282.847 179.214 288.047 180.348C299.076 182.755 297.757 201.209 308.632 198.315C313.776 196.946 313.88 191.957 318.924 190.33C331.369 186.316 330.652 213.638 343.512 210.792C351.013 209.131 350.455 200.922 357.807 198.814C363.111 197.293 366.568 199.451 372.102 198.814C397.465 195.896 393.487 160.635 418.991 158.888C422.107 158.675 426.996 158.888 426.996 158.888" stroke="url(#paint10_linear_2021_597)" stroke-opacity="0.2"/>
<path d="M287.996 180.058C299.018 182.487 297.7 201.116 308.568 198.195C313.708 196.813 313.812 191.776 318.853 190.134C331.29 186.081 330.573 213.663 343.425 210.79C350.921 209.113 350.363 200.827 357.71 198.698C363.011 197.163 366.465 199.341 371.996 198.698C385.16 197.169 390.415 186.831 395.996 177" stroke="url(#paint11_linear_2021_597)" stroke-width="2" stroke-linecap="round"/>
<path d="M218.524 109.624C218.524 110.024 218.424 110.4 218.224 110.752C218.032 111.104 217.744 111.4 217.36 111.64C216.984 111.88 216.536 112.024 216.016 112.072V113.044H215.236V112.072C214.484 112 213.876 111.764 213.412 111.364C212.948 110.964 212.716 110.436 212.716 109.78H214.18C214.204 110.092 214.304 110.352 214.48 110.56C214.656 110.76 214.908 110.888 215.236 110.944V108.304C214.7 108.168 214.264 108.032 213.928 107.896C213.592 107.752 213.304 107.528 213.064 107.224C212.832 106.92 212.716 106.504 212.716 105.976C212.716 105.312 212.948 104.764 213.412 104.332C213.876 103.892 214.484 103.636 215.236 103.564V102.592H216.016V103.564C216.72 103.628 217.284 103.852 217.708 104.236C218.14 104.612 218.384 105.132 218.44 105.796H216.976C216.952 105.548 216.856 105.328 216.688 105.136C216.52 104.936 216.296 104.8 216.016 104.728V107.32C216.552 107.448 216.988 107.584 217.324 107.728C217.66 107.864 217.944 108.084 218.176 108.388C218.408 108.684 218.524 109.096 218.524 109.624ZM214.108 105.904C214.108 106.232 214.204 106.488 214.396 106.672C214.596 106.856 214.876 107.004 215.236 107.116V104.692C214.892 104.732 214.616 104.856 214.408 105.064C214.208 105.272 214.108 105.552 214.108 105.904ZM216.016 110.944C216.368 110.888 216.644 110.748 216.844 110.524C217.044 110.292 217.144 110.016 217.144 109.696C217.144 109.376 217.044 109.128 216.844 108.952C216.652 108.768 216.376 108.62 216.016 108.508V110.944ZM224.394 110.14C225.162 109.476 225.766 108.932 226.206 108.508C226.654 108.076 227.026 107.628 227.322 107.164C227.618 106.7 227.766 106.236 227.766 105.772C227.766 105.292 227.65 104.916 227.418 104.644C227.194 104.372 226.838 104.236 226.35 104.236C225.878 104.236 225.51 104.388 225.246 104.692C224.99 104.988 224.854 105.388 224.838 105.892H223.518C223.542 104.98 223.814 104.284 224.334 103.804C224.862 103.316 225.53 103.072 226.338 103.072C227.21 103.072 227.89 103.312 228.378 103.792C228.874 104.272 229.122 104.912 229.122 105.712C229.122 106.288 228.974 106.844 228.678 107.38C228.39 107.908 228.042 108.384 227.634 108.808C227.234 109.224 226.722 109.708 226.098 110.26L225.558 110.74H229.362V111.88H223.53V110.884L224.394 110.14ZM232.244 110.356L230.792 113.668H229.904L230.756 110.356H232.244ZM233.235 105.412C233.283 104.668 233.567 104.088 234.087 103.672C234.615 103.256 235.287 103.048 236.103 103.048C236.663 103.048 237.147 103.148 237.555 103.348C237.963 103.548 238.271 103.82 238.479 104.164C238.687 104.508 238.791 104.896 238.791 105.328C238.791 105.824 238.659 106.248 238.395 106.6C238.131 106.952 237.815 107.188 237.447 107.308V107.356C237.919 107.5 238.287 107.764 238.551 108.148C238.815 108.524 238.947 109.008 238.947 109.6C238.947 110.072 238.839 110.492 238.623 110.86C238.407 111.228 238.087 111.52 237.663 111.736C237.239 111.944 236.731 112.048 236.139 112.048C235.275 112.048 234.563 111.828 234.003 111.388C233.451 110.94 233.155 110.3 233.115 109.468H234.435C234.467 109.892 234.631 110.24 234.927 110.512C235.223 110.776 235.623 110.908 236.127 110.908C236.615 110.908 236.991 110.776 237.255 110.512C237.519 110.24 237.651 109.892 237.651 109.468C237.651 108.908 237.471 108.512 237.111 108.28C236.759 108.04 236.215 107.92 235.479 107.92H235.167V106.792H235.491C236.139 106.784 236.631 106.676 236.967 106.468C237.311 106.26 237.483 105.932 237.483 105.484C237.483 105.1 237.359 104.796 237.111 104.572C236.863 104.34 236.511 104.224 236.055 104.224C235.607 104.224 235.259 104.34 235.011 104.572C234.763 104.796 234.615 105.076 234.567 105.412H233.235ZM240.36 105.412C240.408 104.668 240.692 104.088 241.212 103.672C241.74 103.256 242.412 103.048 243.228 103.048C243.788 103.048 244.272 103.148 244.68 103.348C245.088 103.548 245.396 103.82 245.604 104.164C245.812 104.508 245.916 104.896 245.916 105.328C245.916 105.824 245.784 106.248 245.52 106.6C245.256 106.952 244.94 107.188 244.572 107.308V107.356C245.044 107.5 245.412 107.764 245.676 108.148C245.94 108.524 246.072 109.008 246.072 109.6C246.072 110.072 245.964 110.492 245.748 110.86C245.532 111.228 245.212 111.52 244.788 111.736C244.364 111.944 243.856 112.048 243.264 112.048C242.4 112.048 241.688 111.828 241.128 111.388C240.576 110.94 240.28 110.3 240.24 109.468H241.56C241.592 109.892 241.756 110.24 242.052 110.512C242.348 110.776 242.748 110.908 243.252 110.908C243.74 110.908 244.116 110.776 244.38 110.512C244.644 110.24 244.776 109.892 244.776 109.468C244.776 108.908 244.596 108.512 244.236 108.28C243.884 108.04 243.34 107.92 242.604 107.92H242.292V106.792H242.616C243.264 106.784 243.756 106.676 244.092 106.468C244.436 106.26 244.608 105.932 244.608 105.484C244.608 105.1 244.484 104.796 244.236 104.572C243.988 104.34 243.636 104.224 243.18 104.224C242.732 104.224 242.384 104.34 242.136 104.572C241.888 104.796 241.74 105.076 241.692 105.412H240.36ZM247.341 110.176V109.144L251.373 103.36H253.029V108.988H254.145V110.176H253.029V112H251.685V110.176H247.341ZM251.745 104.752L248.913 108.988H251.745V104.752ZM256.959 110.356L255.507 113.668H254.619L255.471 110.356H256.959ZM262.678 105.28C262.59 104.912 262.43 104.636 262.198 104.452C261.966 104.268 261.642 104.176 261.226 104.176C260.594 104.176 260.122 104.42 259.81 104.908C259.498 105.388 259.334 106.188 259.318 107.308C259.526 106.956 259.83 106.684 260.23 106.492C260.63 106.3 261.062 106.204 261.526 106.204C262.054 106.204 262.518 106.32 262.918 106.552C263.326 106.776 263.642 107.104 263.866 107.536C264.098 107.968 264.214 108.484 264.214 109.084C264.214 109.644 264.102 110.144 263.878 110.584C263.662 111.024 263.338 111.372 262.906 111.628C262.474 111.876 261.954 112 261.346 112C260.522 112 259.874 111.82 259.402 111.46C258.938 111.092 258.61 110.576 258.418 109.912C258.234 109.248 258.142 108.42 258.142 107.428C258.142 104.5 259.174 103.036 261.238 103.036C262.038 103.036 262.666 103.252 263.122 103.684C263.586 104.116 263.858 104.648 263.938 105.28H262.678ZM261.226 107.356C260.738 107.356 260.322 107.504 259.978 107.8C259.642 108.088 259.474 108.508 259.474 109.06C259.474 109.612 259.63 110.052 259.942 110.38C260.262 110.7 260.706 110.86 261.274 110.86C261.778 110.86 262.174 110.704 262.462 110.392C262.758 110.08 262.906 109.664 262.906 109.144C262.906 108.6 262.762 108.168 262.474 107.848C262.194 107.52 261.778 107.356 261.226 107.356ZM271.217 104.308L267.881 112H266.501L269.873 104.452H265.433V103.288H271.217V104.308Z" fill="#00D2AA"/>
<path d="M213.508 118.727V125H212.689V118.727H213.508ZM217.307 119.978C217.907 119.978 218.393 120.161 218.765 120.527C219.137 120.887 219.323 121.409 219.323 122.093V125H218.513V122.21C218.513 121.718 218.39 121.343 218.144 121.085C217.898 120.821 217.562 120.689 217.136 120.689C216.704 120.689 216.359 120.824 216.101 121.094C215.849 121.364 215.723 121.757 215.723 122.273V125H214.904V120.068H215.723V120.77C215.885 120.518 216.104 120.323 216.38 120.185C216.662 120.047 216.971 119.978 217.307 119.978ZM220.355 122.525C220.355 122.015 220.457 121.571 220.661 121.193C220.865 120.809 221.147 120.512 221.507 120.302C221.873 120.092 222.29 119.987 222.758 119.987C223.364 119.987 223.862 120.134 224.252 120.428C224.648 120.722 224.909 121.13 225.035 121.652H224.153C224.069 121.352 223.904 121.115 223.658 120.941C223.418 120.767 223.118 120.68 222.758 120.68C222.29 120.68 221.912 120.842 221.624 121.166C221.336 121.484 221.192 121.937 221.192 122.525C221.192 123.119 221.336 123.578 221.624 123.902C221.912 124.226 222.29 124.388 222.758 124.388C223.118 124.388 223.418 124.304 223.658 124.136C223.898 123.968 224.063 123.728 224.153 123.416H225.035C224.903 123.92 224.639 124.325 224.243 124.631C223.847 124.931 223.352 125.081 222.758 125.081C222.29 125.081 221.873 124.976 221.507 124.766C221.147 124.556 220.865 124.259 220.661 123.875C220.457 123.491 220.355 123.041 220.355 122.525ZM228.279 125.081C227.817 125.081 227.397 124.976 227.019 124.766C226.647 124.556 226.353 124.259 226.137 123.875C225.927 123.485 225.822 123.035 225.822 122.525C225.822 122.021 225.93 121.577 226.146 121.193C226.368 120.803 226.668 120.506 227.046 120.302C227.424 120.092 227.847 119.987 228.315 119.987C228.783 119.987 229.206 120.092 229.584 120.302C229.962 120.506 230.259 120.8 230.475 121.184C230.697 121.568 230.808 122.015 230.808 122.525C230.808 123.035 230.694 123.485 230.466 123.875C230.244 124.259 229.941 124.556 229.557 124.766C229.173 124.976 228.747 125.081 228.279 125.081ZM228.279 124.361C228.573 124.361 228.849 124.292 229.107 124.154C229.365 124.016 229.572 123.809 229.728 123.533C229.89 123.257 229.971 122.921 229.971 122.525C229.971 122.129 229.893 121.793 229.737 121.517C229.581 121.241 229.377 121.037 229.125 120.905C228.873 120.767 228.6 120.698 228.306 120.698C228.006 120.698 227.73 120.767 227.478 120.905C227.232 121.037 227.034 121.241 226.884 121.517C226.734 121.793 226.659 122.129 226.659 122.525C226.659 122.927 226.731 123.266 226.875 123.542C227.025 123.818 227.223 124.025 227.469 124.163C227.715 124.295 227.985 124.361 228.279 124.361ZM237.815 119.978C238.199 119.978 238.541 120.059 238.841 120.221C239.141 120.377 239.378 120.614 239.552 120.932C239.726 121.25 239.813 121.637 239.813 122.093V125H239.003V122.21C239.003 121.718 238.88 121.343 238.634 121.085C238.394 120.821 238.067 120.689 237.653 120.689C237.227 120.689 236.888 120.827 236.636 121.103C236.384 121.373 236.258 121.766 236.258 122.282V125H235.448V122.21C235.448 121.718 235.325 121.343 235.079 121.085C234.839 120.821 234.512 120.689 234.098 120.689C233.672 120.689 233.333 120.827 233.081 121.103C232.829 121.373 232.703 121.766 232.703 122.282V125H231.884V120.068H232.703V120.779C232.865 120.521 233.081 120.323 233.351 120.185C233.627 120.047 233.93 119.978 234.26 119.978C234.674 119.978 235.04 120.071 235.358 120.257C235.676 120.443 235.913 120.716 236.069 121.076C236.207 120.728 236.435 120.458 236.753 120.266C237.071 120.074 237.425 119.978 237.815 119.978ZM245.657 122.345C245.657 122.501 245.648 122.666 245.63 122.84H241.688C241.718 123.326 241.883 123.707 242.183 123.983C242.489 124.253 242.858 124.388 243.29 124.388C243.644 124.388 243.938 124.307 244.172 124.145C244.412 123.977 244.58 123.755 244.676 123.479H245.558C245.426 123.953 245.162 124.34 244.766 124.64C244.37 124.934 243.878 125.081 243.29 125.081C242.822 125.081 242.402 124.976 242.03 124.766C241.664 124.556 241.376 124.259 241.166 123.875C240.956 123.485 240.851 123.035 240.851 122.525C240.851 122.015 240.953 121.568 241.157 121.184C241.361 120.8 241.646 120.506 242.012 120.302C242.384 120.092 242.81 119.987 243.29 119.987C243.758 119.987 244.172 120.089 244.532 120.293C244.892 120.497 245.168 120.779 245.36 121.139C245.558 121.493 245.657 121.895 245.657 122.345ZM244.811 122.174C244.811 121.862 244.742 121.595 244.604 121.373C244.466 121.145 244.277 120.974 244.037 120.86C243.803 120.74 243.542 120.68 243.254 120.68C242.84 120.68 242.486 120.812 242.192 121.076C241.904 121.34 241.739 121.706 241.697 122.174H244.811Z" fill="#00D2AA" fill-opacity="0.7"/>
<path d="M390.833 109.624C390.833 110.024 390.733 110.4 390.533 110.752C390.341 111.104 390.053 111.4 389.669 111.64C389.293 111.88 388.845 112.024 388.325 112.072V113.044H387.545V112.072C386.793 112 386.185 111.764 385.721 111.364C385.257 110.964 385.025 110.436 385.025 109.78H386.489C386.513 110.092 386.613 110.352 386.789 110.56C386.965 110.76 387.217 110.888 387.545 110.944V108.304C387.009 108.168 386.573 108.032 386.237 107.896C385.901 107.752 385.613 107.528 385.373 107.224C385.141 106.92 385.025 106.504 385.025 105.976C385.025 105.312 385.257 104.764 385.721 104.332C386.185 103.892 386.793 103.636 387.545 103.564V102.592H388.325V103.564C389.029 103.628 389.593 103.852 390.017 104.236C390.449 104.612 390.693 105.132 390.749 105.796H389.285C389.261 105.548 389.165 105.328 388.997 105.136C388.829 104.936 388.605 104.8 388.325 104.728V107.32C388.861 107.448 389.297 107.584 389.633 107.728C389.969 107.864 390.253 108.084 390.485 108.388C390.717 108.684 390.833 109.096 390.833 109.624ZM386.417 105.904C386.417 106.232 386.513 106.488 386.705 106.672C386.905 106.856 387.185 107.004 387.545 107.116V104.692C387.201 104.732 386.925 104.856 386.717 105.064C386.517 105.272 386.417 105.552 386.417 105.904ZM388.325 110.944C388.677 110.888 388.953 110.748 389.153 110.524C389.353 110.292 389.453 110.016 389.453 109.696C389.453 109.376 389.353 109.128 389.153 108.952C388.961 108.768 388.685 108.62 388.325 108.508V110.944ZM401.587 104.428H397.567V106.816C397.735 106.592 397.983 106.404 398.311 106.252C398.647 106.1 399.003 106.024 399.379 106.024C400.051 106.024 400.595 106.168 401.011 106.456C401.435 106.744 401.735 107.108 401.911 107.548C402.095 107.988 402.187 108.452 402.187 108.94C402.187 109.532 402.071 110.06 401.839 110.524C401.615 110.98 401.275 111.34 400.819 111.604C400.371 111.868 399.819 112 399.163 112C398.291 112 397.591 111.784 397.063 111.352C396.535 110.92 396.219 110.348 396.115 109.636H397.447C397.535 110.012 397.731 110.312 398.035 110.536C398.339 110.752 398.719 110.86 399.175 110.86C399.743 110.86 400.167 110.688 400.447 110.344C400.735 110 400.879 109.544 400.879 108.976C400.879 108.4 400.735 107.96 400.447 107.656C400.159 107.344 399.735 107.188 399.175 107.188C398.783 107.188 398.451 107.288 398.179 107.488C397.915 107.68 397.723 107.944 397.603 108.28H396.307V103.228H401.587V104.428ZM404.343 112.084C404.095 112.084 403.887 112 403.719 111.832C403.551 111.664 403.467 111.456 403.467 111.208C403.467 110.96 403.551 110.752 403.719 110.584C403.887 110.416 404.095 110.332 404.343 110.332C404.583 110.332 404.787 110.416 404.955 110.584C405.123 110.752 405.207 110.96 405.207 111.208C405.207 111.456 405.123 111.664 404.955 111.832C404.787 112 404.583 112.084 404.343 112.084ZM406.481 105.412C406.529 104.668 406.813 104.088 407.333 103.672C407.861 103.256 408.533 103.048 409.349 103.048C409.909 103.048 410.393 103.148 410.801 103.348C411.209 103.548 411.517 103.82 411.725 104.164C411.933 104.508 412.037 104.896 412.037 105.328C412.037 105.824 411.905 106.248 411.641 106.6C411.377 106.952 411.061 107.188 410.693 107.308V107.356C411.165 107.5 411.533 107.764 411.797 108.148C412.061 108.524 412.193 109.008 412.193 109.6C412.193 110.072 412.085 110.492 411.869 110.86C411.653 111.228 411.333 111.52 410.909 111.736C410.485 111.944 409.977 112.048 409.385 112.048C408.521 112.048 407.809 111.828 407.249 111.388C406.697 110.94 406.401 110.3 406.361 109.468H407.681C407.713 109.892 407.877 110.24 408.173 110.512C408.469 110.776 408.869 110.908 409.373 110.908C409.861 110.908 410.237 110.776 410.501 110.512C410.765 110.24 410.897 109.892 410.897 109.468C410.897 108.908 410.717 108.512 410.357 108.28C410.005 108.04 409.461 107.92 408.725 107.92H408.413V106.792H408.737C409.385 106.784 409.877 106.676 410.213 106.468C410.557 106.26 410.729 105.932 410.729 105.484C410.729 105.1 410.605 104.796 410.357 104.572C410.109 104.34 409.757 104.224 409.301 104.224C408.853 104.224 408.505 104.34 408.257 104.572C408.009 104.796 407.861 105.076 407.813 105.412H406.481ZM413.45 104.5V103.252H415.946V112H414.566V104.5H413.45ZM426.789 103.66V112H425.421V106.288L422.877 112H421.929L419.373 106.288V112H418.005V103.66H419.481L422.409 110.2L425.325 103.66H426.789Z" fill="#00D9F5"/>
<path d="M386.845 119.393V121.49H389.131V122.165H386.845V124.325H389.401V125H386.026V118.718H389.401V119.393H386.845ZM393.214 125L392.044 123.164L390.919 125H390.064L391.657 122.552L390.064 120.068H390.991L392.161 121.895L393.277 120.068H394.132L392.548 122.507L394.141 125H393.214ZM395.766 120.977C395.928 120.695 396.168 120.461 396.486 120.275C396.81 120.083 397.185 119.987 397.611 119.987C398.049 119.987 398.445 120.092 398.799 120.302C399.159 120.512 399.441 120.809 399.645 121.193C399.849 121.571 399.951 122.012 399.951 122.516C399.951 123.014 399.849 123.458 399.645 123.848C399.441 124.238 399.159 124.541 398.799 124.757C398.445 124.973 398.049 125.081 397.611 125.081C397.191 125.081 396.819 124.988 396.495 124.802C396.177 124.61 395.934 124.373 395.766 124.091V127.34H394.947V120.068H395.766V120.977ZM399.114 122.516C399.114 122.144 399.039 121.82 398.889 121.544C398.739 121.268 398.535 121.058 398.277 120.914C398.025 120.77 397.746 120.698 397.44 120.698C397.14 120.698 396.861 120.773 396.603 120.923C396.351 121.067 396.147 121.28 395.991 121.562C395.841 121.838 395.766 122.159 395.766 122.525C395.766 122.897 395.841 123.224 395.991 123.506C396.147 123.782 396.351 123.995 396.603 124.145C396.861 124.289 397.14 124.361 397.44 124.361C397.746 124.361 398.025 124.289 398.277 124.145C398.535 123.995 398.739 123.782 398.889 123.506C399.039 123.224 399.114 122.894 399.114 122.516ZM405.529 122.345C405.529 122.501 405.52 122.666 405.502 122.84H401.56C401.59 123.326 401.755 123.707 402.055 123.983C402.361 124.253 402.73 124.388 403.162 124.388C403.516 124.388 403.81 124.307 404.044 124.145C404.284 123.977 404.452 123.755 404.548 123.479H405.43C405.298 123.953 405.034 124.34 404.638 124.64C404.242 124.934 403.75 125.081 403.162 125.081C402.694 125.081 402.274 124.976 401.902 124.766C401.536 124.556 401.248 124.259 401.038 123.875C400.828 123.485 400.723 123.035 400.723 122.525C400.723 122.015 400.825 121.568 401.029 121.184C401.233 120.8 401.518 120.506 401.884 120.302C402.256 120.092 402.682 119.987 403.162 119.987C403.63 119.987 404.044 120.089 404.404 120.293C404.764 120.497 405.04 120.779 405.232 121.139C405.43 121.493 405.529 121.895 405.529 122.345ZM404.683 122.174C404.683 121.862 404.614 121.595 404.476 121.373C404.338 121.145 404.149 120.974 403.909 120.86C403.675 120.74 403.414 120.68 403.126 120.68C402.712 120.68 402.358 120.812 402.064 121.076C401.776 121.34 401.611 121.706 401.569 122.174H404.683ZM409.013 119.978C409.613 119.978 410.099 120.161 410.471 120.527C410.843 120.887 411.029 121.409 411.029 122.093V125H410.219V122.21C410.219 121.718 410.096 121.343 409.85 121.085C409.604 120.821 409.268 120.689 408.842 120.689C408.41 120.689 408.065 120.824 407.807 121.094C407.555 121.364 407.429 121.757 407.429 122.273V125H406.61V120.068H407.429V120.77C407.591 120.518 407.81 120.323 408.086 120.185C408.368 120.047 408.677 119.978 409.013 119.978ZM414.113 125.081C413.735 125.081 413.396 125.018 413.096 124.892C412.796 124.76 412.559 124.58 412.385 124.352C412.211 124.118 412.115 123.851 412.097 123.551H412.943C412.967 123.797 413.081 123.998 413.285 124.154C413.495 124.31 413.768 124.388 414.104 124.388C414.416 124.388 414.662 124.319 414.842 124.181C415.022 124.043 415.112 123.869 415.112 123.659C415.112 123.443 415.016 123.284 414.824 123.182C414.632 123.074 414.335 122.969 413.933 122.867C413.567 122.771 413.267 122.675 413.033 122.579C412.805 122.477 412.607 122.33 412.439 122.138C412.277 121.94 412.196 121.682 412.196 121.364C412.196 121.112 412.271 120.881 412.421 120.671C412.571 120.461 412.784 120.296 413.06 120.176C413.336 120.05 413.651 119.987 414.005 119.987C414.551 119.987 414.992 120.125 415.328 120.401C415.664 120.677 415.844 121.055 415.868 121.535H415.049C415.031 121.277 414.926 121.07 414.734 120.914C414.548 120.758 414.296 120.68 413.978 120.68C413.684 120.68 413.45 120.743 413.276 120.869C413.102 120.995 413.015 121.16 413.015 121.364C413.015 121.526 413.066 121.661 413.168 121.769C413.276 121.871 413.408 121.955 413.564 122.021C413.726 122.081 413.948 122.15 414.23 122.228C414.584 122.324 414.872 122.42 415.094 122.516C415.316 122.606 415.505 122.744 415.661 122.93C415.823 123.116 415.907 123.359 415.913 123.659C415.913 123.929 415.838 124.172 415.688 124.388C415.538 124.604 415.325 124.775 415.049 124.901C414.779 125.021 414.467 125.081 414.113 125.081ZM421.569 122.345C421.569 122.501 421.56 122.666 421.542 122.84H417.6C417.63 123.326 417.795 123.707 418.095 123.983C418.401 124.253 418.77 124.388 419.202 124.388C419.556 124.388 419.85 124.307 420.084 124.145C420.324 123.977 420.492 123.755 420.588 123.479H421.47C421.338 123.953 421.074 124.34 420.678 124.64C420.282 124.934 419.79 125.081 419.202 125.081C418.734 125.081 418.314 124.976 417.942 124.766C417.576 124.556 417.288 124.259 417.078 123.875C416.868 123.485 416.763 123.035 416.763 122.525C416.763 122.015 416.865 121.568 417.069 121.184C417.273 120.8 417.558 120.506 417.924 120.302C418.296 120.092 418.722 119.987 419.202 119.987C419.67 119.987 420.084 120.089 420.444 120.293C420.804 120.497 421.08 120.779 421.272 121.139C421.47 121.493 421.569 121.895 421.569 122.345ZM420.723 122.174C420.723 121.862 420.654 121.595 420.516 121.373C420.378 121.145 420.189 120.974 419.949 120.86C419.715 120.74 419.454 120.68 419.166 120.68C418.752 120.68 418.398 120.812 418.104 121.076C417.816 121.34 417.651 121.706 417.609 122.174H420.723ZM424.396 125.081C424.018 125.081 423.679 125.018 423.379 124.892C423.079 124.76 422.842 124.58 422.668 124.352C422.494 124.118 422.398 123.851 422.38 123.551H423.226C423.25 123.797 423.364 123.998 423.568 124.154C423.778 124.31 424.051 124.388 424.387 124.388C424.699 124.388 424.945 124.319 425.125 124.181C425.305 124.043 425.395 123.869 425.395 123.659C425.395 123.443 425.299 123.284 425.107 123.182C424.915 123.074 424.618 122.969 424.216 122.867C423.85 122.771 423.55 122.675 423.316 122.579C423.088 122.477 422.89 122.33 422.722 122.138C422.56 121.94 422.479 121.682 422.479 121.364C422.479 121.112 422.554 120.881 422.704 120.671C422.854 120.461 423.067 120.296 423.343 120.176C423.619 120.05 423.934 119.987 424.288 119.987C424.834 119.987 425.275 120.125 425.611 120.401C425.947 120.677 426.127 121.055 426.151 121.535H425.332C425.314 121.277 425.209 121.07 425.017 120.914C424.831 120.758 424.579 120.68 424.261 120.68C423.967 120.68 423.733 120.743 423.559 120.869C423.385 120.995 423.298 121.16 423.298 121.364C423.298 121.526 423.349 121.661 423.451 121.769C423.559 121.871 423.691 121.955 423.847 122.021C424.009 122.081 424.231 122.15 424.513 122.228C424.867 122.324 425.155 122.42 425.377 122.516C425.599 122.606 425.788 122.744 425.944 122.93C426.106 123.116 426.19 123.359 426.196 123.659C426.196 123.929 426.121 124.172 425.971 124.388C425.821 124.604 425.608 124.775 425.332 124.901C425.062 125.021 424.75 125.081 424.396 125.081Z" fill="#00D9F5" fill-opacity="0.7"/>
<path d="M218.284 74.1121C217.239 74.1121 216.279 73.8667 215.404 73.3761C214.529 72.8854 213.836 72.2081 213.324 71.3441C212.812 70.4694 212.556 69.4827 212.556 68.3841C212.556 67.2961 212.812 66.3201 213.324 65.4561C213.836 64.5814 214.529 63.8987 215.404 63.4081C216.279 62.9174 217.239 62.6721 218.284 62.6721C219.34 62.6721 220.3 62.9174 221.164 63.4081C222.039 63.8987 222.727 64.5814 223.228 65.4561C223.74 66.3201 223.996 67.2961 223.996 68.3841C223.996 69.4827 223.74 70.4694 223.228 71.3441C222.727 72.2081 222.039 72.8854 221.164 73.3761C220.289 73.8667 219.329 74.1121 218.284 74.1121ZM218.284 72.1121C218.956 72.1121 219.548 71.9627 220.06 71.6641C220.572 71.3547 220.972 70.9174 221.26 70.3521C221.548 69.7867 221.692 69.1307 221.692 68.3841C221.692 67.6374 221.548 66.9867 221.26 66.4321C220.972 65.8667 220.572 65.4347 220.06 65.1361C219.548 64.8374 218.956 64.6881 218.284 64.6881C217.612 64.6881 217.015 64.8374 216.492 65.1361C215.98 65.4347 215.58 65.8667 215.292 66.4321C215.004 66.9867 214.86 67.6374 214.86 68.3841C214.86 69.1307 215.004 69.7867 215.292 70.3521C215.58 70.9174 215.98 71.3547 216.492 71.6641C217.015 71.9627 217.612 72.1121 218.284 72.1121ZM230.575 65.0081C231.631 65.0081 232.484 65.3441 233.135 66.0161C233.785 66.6774 234.111 67.6054 234.111 68.8001V74.0001H231.871V69.1041C231.871 68.4001 231.695 67.8614 231.343 67.4881C230.991 67.1041 230.511 66.9121 229.903 66.9121C229.284 66.9121 228.793 67.1041 228.431 67.4881C228.079 67.8614 227.903 68.4001 227.903 69.1041V74.0001H225.663V65.1361H227.903V66.2401C228.201 65.8561 228.58 65.5574 229.039 65.3441C229.508 65.1201 230.02 65.0081 230.575 65.0081ZM238.481 62.1601V74.0001H236.241V62.1601H238.481ZM241.83 64.0801C241.435 64.0801 241.105 63.9574 240.838 63.7121C240.582 63.4561 240.454 63.1414 240.454 62.7681C240.454 62.3947 240.582 62.0854 240.838 61.8401C241.105 61.5841 241.435 61.4561 241.83 61.4561C242.225 61.4561 242.55 61.5841 242.806 61.8401C243.073 62.0854 243.206 62.3947 243.206 62.7681C243.206 63.1414 243.073 63.4561 242.806 63.7121C242.55 63.9574 242.225 64.0801 241.83 64.0801ZM242.934 65.1361V74.0001H240.694V65.1361H242.934ZM250.059 65.0081C251.115 65.0081 251.968 65.3441 252.619 66.0161C253.27 66.6774 253.595 67.6054 253.595 68.8001V74.0001H251.355V69.1041C251.355 68.4001 251.179 67.8614 250.827 67.4881C250.475 67.1041 249.995 66.9121 249.387 66.9121C248.768 66.9121 248.278 67.1041 247.915 67.4881C247.563 67.8614 247.387 68.4001 247.387 69.1041V74.0001H245.147V65.1361H247.387V66.2401C247.686 65.8561 248.064 65.5574 248.523 65.3441C248.992 65.1201 249.504 65.0081 250.059 65.0081ZM263.965 69.3761C263.965 69.6961 263.944 69.9841 263.901 70.2401H257.421C257.474 70.8801 257.698 71.3814 258.093 71.7441C258.488 72.1067 258.973 72.2881 259.549 72.2881C260.381 72.2881 260.973 71.9307 261.325 71.2161H263.741C263.485 72.0694 262.994 72.7734 262.269 73.3281C261.544 73.8721 260.653 74.1441 259.597 74.1441C258.744 74.1441 257.976 73.9574 257.293 73.5841C256.621 73.2001 256.093 72.6614 255.709 71.9681C255.336 71.2747 255.149 70.4747 255.149 69.5681C255.149 68.6507 255.336 67.8454 255.709 67.1521C256.082 66.4587 256.605 65.9254 257.277 65.5521C257.949 65.1787 258.722 64.9921 259.597 64.9921C260.44 64.9921 261.192 65.1734 261.853 65.5361C262.525 65.8987 263.042 66.4161 263.405 67.0881C263.778 67.7494 263.965 68.5121 263.965 69.3761ZM261.645 68.7361C261.634 68.1601 261.426 67.7014 261.021 67.3601C260.616 67.0081 260.12 66.8321 259.533 66.8321C258.978 66.8321 258.509 67.0027 258.125 67.3441C257.752 67.6747 257.522 68.1387 257.437 68.7361H261.645ZM276.261 71.8721H271.813L271.077 74.0001H268.725L272.741 62.8161H275.349L279.365 74.0001H276.997L276.261 71.8721ZM275.653 70.0801L274.037 65.4081L272.421 70.0801H275.653ZM285.778 65.0081C286.834 65.0081 287.687 65.3441 288.338 66.0161C288.988 66.6774 289.314 67.6054 289.314 68.8001V74.0001H287.074V69.1041C287.074 68.4001 286.898 67.8614 286.546 67.4881C286.194 67.1041 285.714 66.9121 285.106 66.9121C284.487 66.9121 283.996 67.1041 283.634 67.4881C283.282 67.8614 283.106 68.4001 283.106 69.1041V74.0001H280.866V65.1361H283.106V66.2401C283.404 65.8561 283.783 65.5574 284.242 65.3441C284.711 65.1201 285.223 65.0081 285.778 65.0081ZM290.868 69.5361C290.868 68.6401 291.044 67.8454 291.396 67.1521C291.759 66.4587 292.244 65.9254 292.852 65.5521C293.471 65.1787 294.159 64.9921 294.916 64.9921C295.577 64.9921 296.153 65.1254 296.644 65.3921C297.145 65.6587 297.545 65.9947 297.844 66.4001V65.1361H300.1V74.0001H297.844V72.7041C297.556 73.1201 297.156 73.4667 296.644 73.7441C296.143 74.0107 295.561 74.1441 294.9 74.1441C294.153 74.1441 293.471 73.9521 292.852 73.5681C292.244 73.1841 291.759 72.6454 291.396 71.9521C291.044 71.2481 290.868 70.4427 290.868 69.5361ZM297.844 69.5681C297.844 69.0241 297.737 68.5601 297.524 68.1761C297.311 67.7814 297.023 67.4827 296.66 67.2801C296.297 67.0667 295.908 66.9601 295.492 66.9601C295.076 66.9601 294.692 67.0614 294.34 67.2641C293.988 67.4667 293.7 67.7654 293.476 68.1601C293.263 68.5441 293.156 69.0027 293.156 69.5361C293.156 70.0694 293.263 70.5387 293.476 70.9441C293.7 71.3387 293.988 71.6427 294.34 71.8561C294.703 72.0694 295.087 72.1761 295.492 72.1761C295.908 72.1761 296.297 72.0747 296.66 71.8721C297.023 71.6587 297.311 71.3601 297.524 70.9761C297.737 70.5814 297.844 70.1121 297.844 69.5681ZM304.528 62.1601V74.0001H302.288V62.1601H304.528ZM315.221 65.1361L309.733 78.1921H307.349L309.269 73.7761L305.717 65.1361H308.229L310.517 71.3281L312.837 65.1361H315.221ZM319.82 74.1441C319.095 74.1441 318.444 74.0161 317.868 73.7601C317.292 73.4934 316.834 73.1361 316.492 72.6881C316.162 72.2401 315.98 71.7441 315.948 71.2001H318.204C318.247 71.5414 318.412 71.8241 318.7 72.0481C318.999 72.2721 319.367 72.3841 319.804 72.3841C320.231 72.3841 320.562 72.2987 320.796 72.1281C321.042 71.9574 321.164 71.7387 321.164 71.4721C321.164 71.1841 321.015 70.9707 320.716 70.8321C320.428 70.6827 319.964 70.5227 319.324 70.3521C318.663 70.1921 318.119 70.0267 317.692 69.8561C317.276 69.6854 316.914 69.4241 316.604 69.0721C316.306 68.7201 316.156 68.2454 316.156 67.6481C316.156 67.1574 316.295 66.7094 316.572 66.3041C316.86 65.8987 317.266 65.5787 317.788 65.3441C318.322 65.1094 318.946 64.9921 319.66 64.9921C320.716 64.9921 321.559 65.2587 322.188 65.7921C322.818 66.3147 323.164 67.0241 323.228 67.9201H321.084C321.052 67.5681 320.903 67.2907 320.636 67.0881C320.38 66.8747 320.034 66.7681 319.596 66.7681C319.191 66.7681 318.876 66.8427 318.652 66.9921C318.439 67.1414 318.332 67.3494 318.332 67.6161C318.332 67.9147 318.482 68.1441 318.78 68.3041C319.079 68.4534 319.543 68.6081 320.172 68.7681C320.812 68.9281 321.34 69.0934 321.756 69.2641C322.172 69.4347 322.53 69.7014 322.828 70.0641C323.138 70.4161 323.298 70.8854 323.308 71.4721C323.308 71.9841 323.164 72.4427 322.876 72.8481C322.599 73.2534 322.194 73.5734 321.66 73.8081C321.138 74.0321 320.524 74.1441 319.82 74.1441ZM326.283 64.0801C325.888 64.0801 325.558 63.9574 325.291 63.7121C325.035 63.4561 324.907 63.1414 324.907 62.7681C324.907 62.3947 325.035 62.0854 325.291 61.8401C325.558 61.5841 325.888 61.4561 326.283 61.4561C326.678 61.4561 327.003 61.5841 327.259 61.8401C327.526 62.0854 327.659 62.3947 327.659 62.7681C327.659 63.1414 327.526 63.4561 327.259 63.7121C327.003 63.9574 326.678 64.0801 326.283 64.0801ZM327.387 65.1361V74.0001H325.147V65.1361H327.387ZM332.992 74.1441C332.267 74.1441 331.616 74.0161 331.04 73.7601C330.464 73.4934 330.005 73.1361 329.664 72.6881C329.333 72.2401 329.152 71.7441 329.12 71.2001H331.376C331.419 71.5414 331.584 71.8241 331.872 72.0481C332.171 72.2721 332.539 72.3841 332.976 72.3841C333.403 72.3841 333.733 72.2987 333.968 72.1281C334.213 71.9574 334.336 71.7387 334.336 71.4721C334.336 71.1841 334.187 70.9707 333.888 70.8321C333.6 70.6827 333.136 70.5227 332.496 70.3521C331.835 70.1921 331.291 70.0267 330.864 69.8561C330.448 69.6854 330.085 69.4241 329.776 69.0721C329.477 68.7201 329.328 68.2454 329.328 67.6481C329.328 67.1574 329.467 66.7094 329.744 66.3041C330.032 65.8987 330.437 65.5787 330.96 65.3441C331.493 65.1094 332.117 64.9921 332.832 64.9921C333.888 64.9921 334.731 65.2587 335.36 65.7921C335.989 66.3147 336.336 67.0241 336.4 67.9201H334.256C334.224 67.5681 334.075 67.2907 333.808 67.0881C333.552 66.8747 333.205 66.7681 332.768 66.7681C332.363 66.7681 332.048 66.8427 331.824 66.9921C331.611 67.1414 331.504 67.3494 331.504 67.6161C331.504 67.9147 331.653 68.1441 331.952 68.3041C332.251 68.4534 332.715 68.6081 333.344 68.7681C333.984 68.9281 334.512 69.0934 334.928 69.2641C335.344 69.4347 335.701 69.7014 336 70.0641C336.309 70.4161 336.469 70.8854 336.48 71.4721C336.48 71.9841 336.336 72.4427 336.048 72.8481C335.771 73.2534 335.365 73.5734 334.832 73.8081C334.309 74.0321 333.696 74.1441 332.992 74.1441Z" fill="white"/>
<path d="M375.376 66.6001V65.7701H377.256V73.0001H376.336V66.6001H375.376ZM388.705 66.0801V73.0001H387.795V67.8401L385.495 73.0001H384.855L382.545 67.8301V73.0001H381.635V66.0801H382.615L385.175 71.8001L387.735 66.0801H388.705ZM392.639 73.0901C392.125 73.0901 391.659 72.9734 391.239 72.7401C390.825 72.5067 390.499 72.1767 390.259 71.7501C390.025 71.3167 389.909 70.8167 389.909 70.2501C389.909 69.6901 390.029 69.1967 390.269 68.7701C390.515 68.3367 390.849 68.0067 391.269 67.7801C391.689 67.5467 392.159 67.4301 392.679 67.4301C393.199 67.4301 393.669 67.5467 394.089 67.7801C394.509 68.0067 394.839 68.3334 395.079 68.7601C395.325 69.1867 395.449 69.6834 395.449 70.2501C395.449 70.8167 395.322 71.3167 395.069 71.7501C394.822 72.1767 394.485 72.5067 394.059 72.7401C393.632 72.9734 393.159 73.0901 392.639 73.0901ZM392.639 72.2901C392.965 72.2901 393.272 72.2134 393.559 72.0601C393.845 71.9067 394.075 71.6767 394.249 71.3701C394.429 71.0634 394.519 70.6901 394.519 70.2501C394.519 69.8101 394.432 69.4367 394.259 69.1301C394.085 68.8234 393.859 68.5967 393.579 68.4501C393.299 68.2967 392.995 68.2201 392.669 68.2201C392.335 68.2201 392.029 68.2967 391.749 68.4501C391.475 68.5967 391.255 68.8234 391.089 69.1301C390.922 69.4367 390.839 69.8101 390.839 70.2501C390.839 70.6967 390.919 71.0734 391.079 71.3801C391.245 71.6867 391.465 71.9167 391.739 72.0701C392.012 72.2167 392.312 72.2901 392.639 72.2901ZM399.315 67.4201C399.982 67.4201 400.522 67.6234 400.935 68.0301C401.348 68.4301 401.555 69.0101 401.555 69.7701V73.0001H400.655V69.9001C400.655 69.3534 400.518 68.9367 400.245 68.6501C399.972 68.3567 399.598 68.2101 399.125 68.2101C398.645 68.2101 398.262 68.3601 397.975 68.6601C397.695 68.9601 397.555 69.3967 397.555 69.9701V73.0001H396.645V67.5201H397.555V68.3001C397.735 68.0201 397.978 67.8034 398.285 67.6501C398.598 67.4967 398.942 67.4201 399.315 67.4201ZM404.151 68.2701V71.5001C404.151 71.7667 404.208 71.9567 404.321 72.0701C404.435 72.1767 404.631 72.2301 404.911 72.2301H405.581V73.0001H404.761C404.255 73.0001 403.875 72.8834 403.621 72.6501C403.368 72.4167 403.241 72.0334 403.241 71.5001V68.2701H402.531V67.5201H403.241V66.1401H404.151V67.5201H405.581V68.2701H404.151ZM409.404 67.4201C409.817 67.4201 410.191 67.5101 410.524 67.6901C410.857 67.8634 411.117 68.1267 411.304 68.4801C411.497 68.8334 411.594 69.2634 411.594 69.7701V73.0001H410.694V69.9001C410.694 69.3534 410.557 68.9367 410.284 68.6501C410.011 68.3567 409.637 68.2101 409.164 68.2101C408.684 68.2101 408.301 68.3601 408.014 68.6601C407.734 68.9601 407.594 69.3967 407.594 69.9701V73.0001H406.684V65.6001H407.594V68.3001C407.774 68.0201 408.021 67.8034 408.334 67.6501C408.654 67.4967 409.011 67.4201 409.404 67.4201Z" fill="white"/>
<g clip-path="url(#clip2_2021_597)">
<path d="M418.079 68.8334L420.996 71.7501L423.912 68.8334H418.079Z" fill="white"/>
</g>
<defs>
<filter id="filter0_b_2021_597" x="25.9961" y="299" width="282" height="160" filterUnits="userSpaceOnUse" color-interpolation-filters="sRGB">
<feFlood flood-opacity="0" result="BackgroundImageFix"/>
<feGaussianBlur in="BackgroundImageFix" stdDeviation="5"/>
<feComposite in2="SourceAlpha" operator="in" result="effect1_backgroundBlur_2021_597"/>
<feBlend mode="normal" in="SourceGraphic" in2="effect1_backgroundBlur_2021_597" result="shape"/>
</filter>
<linearGradient id="paint0_linear_2021_597" x1="254.564" y1="-342.305" x2="507.311" y2="277.428" gradientUnits="userSpaceOnUse">
<stop offset="0.00887753" stop-color="#DEF9FA"/>
<stop offset="0.1723" stop-color="#BEF3F5"/>
<stop offset="0.4204" stop-color="#9DEDF0"/>
<stop offset="0.5512" stop-color="#7DE7EB"/>
<stop offset="0.7154" stop-color="#5CE1E6"/>
<stop offset="1" stop-color="#33BBCF"/>
</linearGradient>
<linearGradient id="paint1_linear_2021_597" x1="385.56" y1="489.222" x2="-7.99137" y2="281.614" gradientUnits="userSpaceOnUse">
<stop offset="0.00887753" stop-color="#DEF9FA"/>
<stop offset="0.1723" stop-color="#BEF3F5"/>
<stop offset="0.4204" stop-color="#9DEDF0"/>
<stop offset="0.5512" stop-color="#7DE7EB"/>
<stop offset="0.7154" stop-color="#5CE1E6"/>
<stop offset="1" stop-color="#33BBCF"/>
</linearGradient>
<linearGradient id="paint2_linear_2021_597" x1="286.478" y1="337.484" x2="92.834" y2="235.332" gradientUnits="userSpaceOnUse">
<stop offset="0.00887753" stop-color="#DEF9FA"/>
<stop offset="0.1723" stop-color="#BEF3F5"/>
<stop offset="0.4204" stop-color="#9DEDF0"/>
<stop offset="0.5512" stop-color="#7DE7EB"/>
<stop offset="0.7154" stop-color="#5CE1E6"/>
<stop offset="1" stop-color="#33BBCF"/>
</linearGradient>
<linearGradient id="paint3_linear_2021_597" x1="-445.504" y1="-187.5" x2="-85.7163" y2="623.987" gradientUnits="userSpaceOnUse">
<stop stop-color="white"/>
<stop offset="0.906032" stop-color="#14101D"/>
</linearGradient>
<linearGradient id="paint4_linear_2021_597" x1="55.9961" y1="395" x2="103.996" y2="395" gradientUnits="userSpaceOnUse">
<stop stop-color="#00F5A0"/>
<stop offset="1" stop-color="#00D9F5"/>
</linearGradient>
<linearGradient id="paint5_linear_2021_597" x1="113.996" y1="395" x2="161.996" y2="395" gradientUnits="userSpaceOnUse">
<stop stop-color="#00F5A0"/>
<stop offset="1" stop-color="#00D9F5"/>
</linearGradient>
<linearGradient id="paint6_linear_2021_597" x1="171.996" y1="395" x2="219.996" y2="395" gradientUnits="userSpaceOnUse">
<stop stop-color="#00F5A0"/>
<stop offset="1" stop-color="#00D9F5"/>
</linearGradient>
<linearGradient id="paint7_linear_2021_597" x1="229.996" y1="395" x2="277.996" y2="395" gradientUnits="userSpaceOnUse">
<stop stop-color="#00F5A0"/>
<stop offset="1" stop-color="#00D9F5"/>
</linearGradient>
<linearGradient id="paint8_linear_2021_597" x1="-274.33" y1="-700.792" x2="486.855" y2="177.786" gradientUnits="userSpaceOnUse">
<stop stop-color="white"/>
<stop offset="0.939091" stop-color="#14101D"/>
</linearGradient>
<linearGradient id="paint9_linear_2021_597" x1="276.996" y1="245.5" x2="304.996" y2="245.5" gradientUnits="userSpaceOnUse">
<stop stop-color="#00F5A0"/>
<stop offset="1" stop-color="#00D9F5"/>
</linearGradient>
<linearGradient id="paint10_linear_2021_597" x1="211.996" y1="179.5" x2="426.996" y2="179.5" gradientUnits="userSpaceOnUse">
<stop stop-color="#00F5A0"/>
<stop offset="1" stop-color="#00D9F5"/>
</linearGradient>
<linearGradient id="paint11_linear_2021_597" x1="287.996" y1="194" x2="395.996" y2="194" gradientUnits="userSpaceOnUse">
<stop stop-color="#00F5A0"/>
<stop offset="1" stop-color="#00D9F5"/>
</linearGradient>
<clipPath id="clip0_2021_597">
<rect width="24" height="24" fill="white" transform="translate(125.996 383)"/>
</clipPath>
<clipPath id="clip1_2021_597">
<rect width="32" height="32" fill="white" transform="translate(179.996 379)"/>
</clipPath>
<clipPath id="clip2_2021_597">
<rect width="14" height="14" fill="white" transform="translate(413.996 63.0001)"/>
</clipPath>
</defs>
</svg>
