<svg width="481" height="392" viewBox="0 0 481 392" fill="none" xmlns="http://www.w3.org/2000/svg">
<path opacity="0.15" fill-rule="evenodd" clip-rule="evenodd" d="M213.5 382C313.187 382 394 301.187 394 201.5C394 101.813 313.187 21 213.5 21C113.813 21 33 101.813 33 201.5C33 301.187 113.813 382 213.5 382ZM213.5 392C318.71 392 404 306.71 404 201.5C404 96.2898 318.71 11 213.5 11C108.29 11 23 96.2898 23 201.5C23 306.71 108.29 392 213.5 392Z" fill="url(#paint0_linear_2057_299)" fill-opacity="0.15"/>
<path opacity="0.15" fill-rule="evenodd" clip-rule="evenodd" d="M135.307 108.313C83.8414 151.498 77.1284 228.227 120.313 279.693C163.498 331.159 240.228 337.872 291.694 294.687C343.159 251.502 349.872 174.773 306.687 123.307C263.503 71.841 186.773 65.128 135.307 108.313ZM132.093 104.483C78.5121 149.443 71.5232 229.326 116.483 282.907C161.443 336.488 241.326 343.477 294.908 298.517C348.489 253.557 355.478 173.674 310.518 120.093C265.558 66.5117 185.674 59.5228 132.093 104.483Z" fill="url(#paint1_linear_2057_299)" fill-opacity="0.15"/>
<path opacity="0.15" fill-rule="evenodd" clip-rule="evenodd" d="M176.659 157.593C152.41 177.941 149.247 214.093 169.594 238.342C189.941 262.591 226.094 265.753 250.342 245.406C274.591 225.059 277.754 188.907 257.407 164.658C237.06 140.409 200.907 137.246 176.659 157.593ZM173.445 153.763C147.08 175.885 143.642 215.191 165.764 241.556C187.886 267.92 227.192 271.359 253.556 249.236C279.921 227.114 283.359 187.808 261.237 161.444C239.115 135.08 199.809 131.641 173.445 153.763Z" fill="url(#paint2_linear_2057_299)" fill-opacity="0.15"/>
<path d="M10.3984 88H8.42188C5.92969 88 3.95312 86.0234 3.95312 83.5312C3.95312 80.9531 6.01562 78.8906 8.59375 78.8906H10.3984V75.2812H7.99219C3.60938 75.2812 0 78.8906 0 83.2734C0 88.1719 3.95313 92.125 8.85156 92.125H10.3984V88ZM99.6016 88H97.625C95.1328 88 93.1563 86.0234 93.1563 83.5312C93.1563 80.9531 95.2188 78.8906 97.7969 78.8906H99.6016V75.2812H97.1094C92.7266 75.2812 89.1172 78.8906 89.1172 83.2734C89.1172 88.1719 93.0703 92.125 97.9688 92.125H99.5156V88H99.6016ZM18.9922 75.2812C15.125 75.2812 12.0312 79.0625 12.0312 83.7031C12.0312 88.3438 15.125 92.125 18.9922 92.125C22.8594 92.125 25.9531 88.3438 25.9531 83.7031C25.9531 79.0625 22.8594 75.2812 18.9922 75.2812ZM18.9922 88.9453C17.2734 88.9453 15.9844 86.625 15.9844 83.7891C15.9844 80.9531 17.3594 78.6328 18.9922 78.6328C20.7109 78.6328 22 80.9531 22 83.7891C22 86.625 20.625 88.9453 18.9922 88.9453ZM25.9531 92.125L28.6172 75.2812H34.2031L35.8359 83.7031L37.9844 75.2812H43.1406L45.6328 92.125H41.3359L39.9609 80.6953L37.6406 92.125H34.7188L31.5391 80.8672L30.0781 92.125H25.9531ZM46.5781 92.125L49.2422 75.2812H54.8281L56.375 83.7031L58.5234 75.2812H63.7656L66.2578 92.125H61.9609L60.5 80.6953L58.1797 92.125H55.3438L52.0781 80.8672L50.7031 92.125H46.5781ZM66.9453 92.125V75.2812H75.7109V78.5469H71.3281V82.1562H75.1953V85.25H70.8125V88.5156H75.7109V92.125H66.9453ZM101.234 92.125V75.2812H110V78.5469H105.617V82.1562H109.484V85.25H105.102V88.5156H110V92.125H101.234Z" fill="#6D7481"/>
<path d="M85.9375 84.3047C87.3125 84.3047 88.5156 83.1875 88.5156 81.7266V80.1797C88.5156 77.4297 86.2813 75.2813 83.6172 75.2813H77.2578V92.125H81.2109V84.2188L85.5078 92.125H89.8906L85.9375 84.3047ZM82.5859 82.8438H81.125V78.7188H82.7578C83.875 78.7188 84.7344 79.5781 84.7344 80.6953C84.6484 81.8984 83.7031 82.8438 82.5859 82.8438ZM63.9375 32.3984C62.3047 32.2266 59.2969 33.0859 57.9219 39.7891C57.9219 43.9141 58.8672 46.3203 60.4141 47.1797C63.25 48.0391 66.6016 44.2578 66.6016 40.1328C66.6875 37.4688 66.8594 33.9453 63.9375 32.3984ZM85.9375 32.3984C84.3047 32.2266 81.2969 33.0859 79.9219 39.7891C79.9219 43.9141 80.8672 46.3203 82.4141 47.1797C85.25 48.0391 88.6016 44.2578 88.6016 40.1328C88.7734 37.4688 88.8594 33.9453 85.9375 32.3984Z" fill="#6D7481"/>
<path d="M89.375 17.875H20.8828C15.3828 17.875 10.8281 22.3438 10.8281 27.9297V51.4766C10.8281 56.9766 15.2969 61.5312 20.8828 61.5312H89.375C94.875 61.5312 99.4297 57.0625 99.4297 51.4766V27.8438C99.4297 22.3438 94.875 17.875 89.375 17.875ZM41.3359 55.1719C41.3359 55.1719 36.6094 48.8984 35.4063 44.1719C34.2031 39.4453 34.0312 41.5938 34.0312 41.5938C34.0312 41.5938 30.25 50.1016 26.2969 55.5156C22.3438 60.9297 20.3672 52.8516 20.3672 52.8516C18.9922 51.2188 15.0391 27.1563 15.0391 27.1563C17.2734 21.0547 21.0547 26.0391 21.0547 26.0391L24.9219 45.6328C24.9219 45.6328 30.8516 33.6016 32.7422 30.5937C34.7187 27.5 38.0703 28.3594 38.3281 31.5391C38.5859 34.7188 41.8516 43.5703 41.8516 43.5703C42.1094 34.375 45.8906 25.6094 46.4922 24.1484C47.0937 22.6875 53.1953 21.0547 52.0781 26.8984C49.4141 33.4297 46.75 47.2656 47.4375 54.8281C45.7187 60.5859 41.3359 55.1719 41.3359 55.1719ZM66.0859 52.0781C64.2813 52.9375 57.5781 57.4922 52.8516 47.1797C49.8438 36.7813 56.4609 29.1328 56.4609 29.1328C56.4609 29.1328 65.1406 21.7422 71.0703 31.5391C75.7969 42.2813 67.8906 51.2187 66.0859 52.0781ZM88.1719 52.0781C86.3672 52.9375 79.6641 57.4922 74.9375 47.1797C71.9297 36.7813 78.5469 29.1328 78.5469 29.1328C78.5469 29.1328 87.2266 21.7422 93.1563 31.5391C97.8828 42.2813 89.9766 51.2187 88.1719 52.0781Z" fill="#6D7481"/>
<path d="M53.2812 61.4453L68.6641 70.4688L65.4844 61.4453L56.6328 58.9531L53.2812 61.4453Z" fill="#6D7481"/>
<g clip-path="url(#clip0_2057_299)">
<path d="M353.028 42.3475C353.028 39.001 349.731 35.4469 344.026 35.4469C337.619 35.4469 330.581 40.0857 329.505 49.3399C328.406 58.6867 334.299 62.8409 340.238 62.8409C346.177 62.8409 349.287 60.5562 352.467 57.5099C349.731 54.1172 346.201 55.6867 345.522 56.0329C344.774 56.4019 343.816 56.9098 341.851 56.9098C339.56 56.9098 337.222 55.8944 337.222 51.671C351.906 50.2402 353.028 45.6936 353.028 42.3475ZM345.756 42.9013C345.663 43.9397 345.242 45.7169 337.806 46.709C339.373 41.2166 342.366 40.8012 343.745 40.8012C345.031 40.8012 345.849 41.7933 345.756 42.9013ZM320.877 43.8012C320.877 43.8012 317.721 53.5863 317.463 54.3941C317.37 53.5634 315.055 36.0007 315.055 36.0007C309.677 36.0007 306.801 39.7854 305.281 43.7783C305.281 43.7783 301.446 53.5863 301.119 54.417C301.096 53.6555 300.535 43.8938 300.535 43.8938C300.207 39.0007 295.671 36.024 292 36.024L296.443 62.6333C302.078 62.6103 305.117 58.8485 306.708 54.8557C306.708 54.8557 310.098 46.2015 310.238 45.8091C310.262 46.1782 312.67 62.6333 312.67 62.6333C318.329 62.6333 321.368 59.1021 323.005 55.2481L330.932 36.024C325.343 36.024 322.397 39.7854 320.877 43.8012ZM373.792 35.4006C370.308 35.4006 367.642 37.27 365.397 40.0164V39.9935L367.408 24C362.779 24 359.014 27.9695 358.289 33.8773L354.782 62.4256C357.448 62.4256 360.277 61.6641 361.796 59.7255C363.153 61.4561 365.187 62.8409 368.203 62.8409C376.013 62.8409 381.367 53.8865 381.367 45.4859C381.321 37.8238 377.556 35.4006 373.792 35.4006ZM373.067 49.1326C372.249 53.8173 369.606 57.0024 367.057 57.0024C364.486 57.0024 363.387 55.8711 363.387 55.8711C363.878 51.7632 364.181 49.2477 365.117 47.0785C366.052 44.9092 368.273 41.4472 370.588 41.4472C372.856 41.4472 373.885 44.4246 373.067 49.1326ZM400.868 36.0233H395.42L395.444 35.7464C395.818 32.2385 396.659 30.3924 399.442 30.0925C401.336 29.9078 402.178 28.9383 402.388 27.877C402.552 27.0463 403.066 24.161 403.066 24.161C392.123 24.0918 388.686 28.7539 387.798 35.8619L387.774 36.0236H387.657C385.88 36.0236 383.916 38.0082 383.589 40.5236L383.472 41.4468H387.12L384.057 66.4177L383.121 70.8951C383.238 70.8951 383.379 70.918 383.495 70.918C388.616 70.7333 391.889 66.7408 392.614 60.9482L394.999 41.4468H396.706C398.39 41.4468 400.354 39.7854 400.705 37.0157L400.868 36.0233ZM429.208 35.562C422.918 35.562 416.979 40.1316 415.155 47.3087C413.331 54.4862 416.09 62.979 425.35 62.979C434.586 62.979 439.917 54.1401 439.917 46.7779C439.917 39.4619 434.89 35.562 429.208 35.562ZM431.757 48.9013C431.429 52.1552 429.98 57.0942 426.005 57.0942C422.006 57.0942 422.567 51.3245 422.965 48.5781C423.386 45.6473 425.046 41.4698 428.624 41.4698C431.827 41.4698 432.131 45.2316 431.757 48.9013ZM470.993 43.8008C470.993 43.8008 467.836 53.5859 467.578 54.3937C467.485 53.563 465.17 36.0003 465.17 36.0003C459.792 36.0003 456.916 39.7851 455.396 43.7779C455.396 43.7779 451.561 53.586 451.234 54.4166C451.211 53.6552 450.65 43.8934 450.65 43.8934C450.322 39.0003 445.786 36.0236 442.115 36.0236L446.534 62.6329C452.169 62.61 455.209 58.8481 456.799 54.8553C456.799 54.8553 460.19 46.2011 460.307 45.8087C460.33 46.1778 462.738 62.6329 462.738 62.6329C468.397 62.6329 471.437 59.1017 473.073 55.2477L481 36.024C475.435 36.024 472.489 39.7851 470.993 43.8008ZM406.013 24.1614L401.43 60.6483L400.494 65.1487C400.611 65.1487 400.751 65.172 400.868 65.172C405.802 65.1028 409.31 60.8331 409.964 55.4557L412.606 34.5236C413.401 28.1309 409.543 24.1618 406.013 24.1618V24.1614Z" fill="#6D7481"/>
</g>
<path d="M72.0169 222.438C72.0169 222.438 71.0502 222.725 69.4069 223.252C69.1169 222.39 68.7302 221.288 68.1502 220.233C66.3135 216.735 63.6069 214.915 60.3202 214.867C60.0785 214.867 59.8852 214.867 59.6435 214.915C59.5469 214.819 59.4502 214.675 59.3535 214.579C57.9519 213.046 56.1152 212.327 53.9402 212.375C49.7352 212.519 45.5302 215.538 42.0985 220.904C39.6819 224.69 37.8935 229.433 37.3619 233.075C32.5285 234.56 29.1452 235.615 29.0485 235.615C26.5835 236.381 26.5352 236.477 26.1969 238.729C25.9552 240.454 19.5752 289.521 19.5752 289.521L72.6452 298.625V222.342C72.4035 222.342 72.1619 222.39 72.0169 222.438ZM59.7402 226.223C56.9369 227.085 53.8435 228.044 50.7985 228.954C51.6685 225.648 53.3119 222.39 55.3419 220.233C56.1152 219.419 57.1302 218.556 58.3869 218.029C59.5469 220.473 59.7885 223.875 59.7402 226.223ZM53.9885 215.154C54.9552 215.154 55.8252 215.346 56.5502 215.825C55.3902 216.4 54.3269 217.263 53.2635 218.365C50.6052 221.192 48.5269 225.648 47.7052 229.913C45.1435 230.679 42.6785 231.446 40.3585 232.165C41.8085 225.408 47.5119 215.346 53.9885 215.154ZM45.7719 253.44C46.0619 257.896 57.9519 258.902 58.6285 269.396C59.1602 277.638 54.2302 283.292 47.0769 283.723C38.5702 284.25 33.8335 279.267 33.8335 279.267L35.6219 271.648C35.6219 271.648 40.3585 275.194 44.1285 274.954C46.5935 274.81 47.4635 272.798 47.4152 271.408C47.0285 265.563 37.3619 265.898 36.7819 256.315C36.2502 248.217 41.6152 240.071 53.4085 239.304C58.0002 239.017 60.3202 240.167 60.3202 240.167L57.6135 250.181C57.6135 250.181 54.6169 248.84 51.0402 249.031C45.8202 249.367 45.7235 252.625 45.7719 253.44ZM62.5435 225.36C62.4952 223.252 62.2535 220.281 61.2385 217.742C64.4285 218.365 66.0235 221.91 66.7002 224.067C65.4919 224.45 64.0902 224.881 62.5435 225.36ZM74.3852 298.433L96.4252 293.019C96.4252 293.019 86.9519 229.481 86.9035 229.05C86.8552 228.619 86.4685 228.379 86.1302 228.331C85.7919 228.283 79.6052 228.188 79.6052 228.188C79.6052 228.188 75.8352 224.546 74.3852 223.156V298.433Z" fill="#6D7481"/>
<path d="M212.008 113.49C190.462 113.49 173 130.959 173 152.498C173 156.744 173.678 160.834 174.937 164.638L174.944 164.614C175.388 162.562 175.986 160.546 176.733 158.583L176.77 158.482C177.057 157.733 177.374 156.99 177.705 156.254L177.988 155.643C178.258 155.066 178.545 154.496 178.842 153.932C178.964 153.703 179.078 153.473 179.207 153.247C179.274 153.119 179.355 153.001 179.423 152.876C179.74 152.316 180.064 151.755 180.401 151.212L180.654 150.827C181.076 150.169 181.519 149.525 181.981 148.893L182.099 148.725C182.585 148.073 183.095 147.442 183.621 146.825L183.959 146.426C184.482 145.829 185.022 145.245 185.582 144.681L185.916 144.354C186.51 143.766 187.124 143.2 187.759 142.656C190.256 134.286 197.901 128.195 206.949 128.195C210.591 128.195 214.212 129.241 217.314 131.141C220.503 133.109 223.086 135.92 224.776 139.265L224.799 139.315L224.934 139.565V139.575L224.948 139.582C226.841 140.751 228.612 142.105 230.237 143.625C230.372 143.75 230.51 143.865 230.642 143.993C230.648 143.993 230.662 144.01 230.665 144.013L230.658 143.993L230.655 143.979V143.969L230.797 143.686C232.069 135.64 235.623 129.842 239.808 129.842C242.96 129.842 245.755 133.132 247.49 138.198L247.507 138.252L247.51 138.259C247.999 138.792 248.478 139.376 248.941 140.017L248.964 140.051L249.035 140.277L248.968 140.014C243.764 124.593 229.18 113.496 212.005 113.496L212.008 113.49ZM206.504 128.485C198.603 128.63 191.022 134.07 188.437 141.607L188.397 141.722C189.795 140.6 191.279 139.59 192.835 138.701C202.305 133.112 214.701 133.146 224.148 138.755C221.127 133.176 215.268 129.241 208.961 128.616C208.146 128.515 207.325 128.471 206.504 128.485ZM239.693 130.172C239.246 130.183 238.803 130.259 238.377 130.398C234.108 132.295 232.576 137.395 231.523 141.546L231.468 141.789C232.7 139.697 234.195 137.688 236.18 136.247C238.998 133.929 243.284 134.037 246.021 136.426C247.061 137.526 246.497 136.453 246.126 135.684C244.972 133.152 242.667 130.105 239.693 130.169V130.172ZM214.681 138.063L211.07 149.099L211.063 149.116L211.043 149.123L195.862 152.876H195.832L210.871 156.545C211.225 156.916 211.637 157.236 212.086 157.49H212.093C212.234 157.571 212.379 157.641 212.528 157.709L212.562 157.726C212.7 157.787 212.842 157.837 212.987 157.884L213.058 157.911C213.193 157.955 213.328 157.989 213.463 158.019L213.574 158.046C213.928 158.118 214.287 158.155 214.648 158.158C215.678 158.161 216.686 157.858 217.545 157.289C218.404 156.72 219.075 155.909 219.474 154.958C219.744 154.331 219.889 153.642 219.889 152.92V152.883L219.886 152.842C219.883 152.662 219.872 152.482 219.852 152.302L219.848 152.295C219.828 152.122 219.799 151.95 219.761 151.779L219.757 151.766C219.682 151.432 219.574 151.106 219.433 150.794V150.783C219.156 150.16 218.756 149.597 218.259 149.13V149.12L214.681 138.063ZM225.306 140.176C225.468 143.578 225.427 147.081 224.968 150.493C224.394 157.304 220.952 163.311 218.313 169.447L218.211 169.717L218.093 170.008C223.19 164.871 228.792 159.747 231.489 152.856C232.781 150.709 231.887 148.326 231.101 146.187C230.527 143.227 227.493 141.873 225.306 140.176ZM246.136 142.106L244.152 151.178C244.086 151.4 244.033 151.625 243.993 151.853C243.986 151.921 243.969 151.988 243.959 152.056C243.926 152.304 243.908 152.554 243.905 152.805L243.899 152.91H243.909C243.909 155.029 244.911 156.744 246.146 156.747C246.36 156.745 246.57 156.693 246.761 156.595L246.852 156.545C246.935 156.498 247.014 156.445 247.088 156.386C247.132 156.352 247.169 156.312 247.21 156.275C247.39 156.109 247.546 155.918 247.672 155.708L247.773 155.525C247.838 155.407 247.896 155.285 247.949 155.161L248.006 155.026C248.074 154.847 248.134 154.661 248.185 154.466L248.192 154.459L248.195 154.449L249.559 152.927L248.185 151.388V151.391L248.117 151.178L246.136 142.106ZM231.35 144.995C233.679 150.787 234.219 157.506 231.657 163.322C230.004 167.939 226.301 171.634 225.333 176.501C227.796 176.889 230.287 177.095 232.791 177.129C240.102 177.227 247.412 175.711 254 172.522C247.115 162.839 240.092 153.099 231.35 144.995ZM214.651 148.293C215.173 148.293 215.673 148.5 216.042 148.869C216.411 149.238 216.618 149.739 216.618 150.26C216.618 150.782 216.411 151.283 216.042 151.652C215.673 152.021 215.173 152.228 214.651 152.228C214.129 152.228 213.629 152.021 213.26 151.652C212.891 151.283 212.683 150.782 212.683 150.26C212.683 149.739 212.891 149.238 213.26 148.869C213.629 148.5 214.129 148.293 214.651 148.293ZM246.214 149.541C246.68 149.541 247.054 150.183 247.054 150.979C247.054 151.776 246.68 152.417 246.214 152.417C245.752 152.417 245.377 151.776 245.377 150.979C245.377 150.186 245.748 149.541 246.214 149.541ZM232.565 150.162C232.52 150.49 232.463 150.817 232.397 151.141L232.376 151.219C232.343 151.388 232.302 151.536 232.265 151.651C230.645 156.433 227.962 160.156 224.3 164.128C223.804 164.668 223.284 165.208 222.751 165.762C221.425 167.137 220.079 168.492 218.714 169.829C218.336 170.2 217.84 170.709 217.28 171.3C216.932 172.269 216.538 173.359 216.207 174.506C216.058 174.452 215.916 174.402 215.765 174.341C208.65 171.59 203.888 167.915 203.888 167.915C203.888 167.915 207.553 172.687 213.726 177.162C214.324 177.598 214.911 177.973 215.488 178.307C215.235 182.336 217.013 186.204 225.039 187.358C226.414 187.544 227.807 187.553 229.184 187.385L229.15 187.287C229.146 187.276 229.142 187.265 229.136 187.254C229.136 187.254 228.573 186.805 227.857 185.981C227.062 185.069 226.399 184.05 225.886 182.954C225.458 182.029 225.156 181.05 224.989 180.045C224.813 178.959 224.807 177.852 224.968 176.764C225.026 176.359 225.103 175.951 225.211 175.529C225.525 174.267 226.072 172.924 226.922 171.506L226.929 171.496L227.742 170.132C231.465 163.855 233.807 159.079 232.825 151.769C232.752 151.231 232.668 150.696 232.565 150.162ZM248.364 152.792L248.374 152.913V152.947C248.374 152.991 248.364 153.031 248.364 153.075C248.364 153.028 248.374 152.981 248.374 152.93C248.374 152.883 248.367 152.842 248.364 152.795V152.792ZM248.323 153.72L248.316 153.757L248.31 153.804L248.323 153.72ZM252.89 173.727C244.273 177.567 234.53 178.587 225.242 177.125C224.769 180.865 226.538 184.611 229.339 187.014L229.379 187.048C238.502 185.587 246.17 179.727 252.89 173.727Z" fill="#6D7481"/>
<g clip-path="url(#clip1_2057_299)">
<g filter="url(#filter0_d_2057_299)">
<path d="M365.355 209.297C336.428 209.297 312.855 232.869 312.855 261.797C312.855 290.724 336.428 314.297 365.355 314.297C394.283 314.297 417.855 290.724 417.855 261.797C417.855 232.869 394.283 209.297 365.355 209.297ZM318.158 261.797C318.158 254.972 319.628 248.462 322.253 242.582L344.775 304.269C329.025 296.604 318.158 280.487 318.158 261.797ZM365.355 308.994C360.735 308.994 356.273 308.312 352.02 307.052L366.195 265.892L380.685 305.634C380.79 305.844 380.895 306.107 381 306.264C376.118 308.049 370.868 308.994 365.355 308.994ZM371.865 239.642C374.7 239.484 377.273 239.169 377.273 239.169C379.793 238.854 379.53 235.127 376.958 235.284C376.958 235.284 369.293 235.862 364.358 235.862C359.738 235.862 351.915 235.284 351.915 235.284C349.395 235.179 349.08 239.064 351.653 239.222C351.653 239.222 354.068 239.537 356.588 239.694L363.938 259.854L353.595 290.829L336.428 239.642C339.263 239.537 341.835 239.222 341.835 239.222C344.355 238.907 344.093 235.179 341.52 235.337C341.52 235.337 333.855 235.914 328.92 235.914C328.028 235.914 326.978 235.914 325.875 235.862C334.38 223.052 348.87 214.599 365.355 214.599C377.64 214.599 388.823 219.272 397.223 226.989C397.013 226.989 396.803 226.937 396.593 226.937C391.973 226.937 388.665 230.979 388.665 235.337C388.665 239.222 390.923 242.529 393.285 246.414C395.07 249.564 397.17 253.607 397.17 259.434C397.17 263.477 395.595 268.149 393.6 274.712L388.875 290.462L371.865 239.642ZM406.778 239.169C412.675 249.961 414.125 262.629 410.821 274.475C407.516 286.321 399.717 296.408 389.085 302.589L403.523 260.904C406.2 254.184 407.093 248.777 407.093 243.999C407.093 242.267 406.988 240.639 406.778 239.169Z" fill="#6D7481"/>
</g>
</g>
<defs>
<filter id="filter0_d_2057_299" x="308.855" y="209.297" width="113" height="113" filterUnits="userSpaceOnUse" color-interpolation-filters="sRGB">
<feFlood flood-opacity="0" result="BackgroundImageFix"/>
<feColorMatrix in="SourceAlpha" type="matrix" values="0 0 0 0 0 0 0 0 0 0 0 0 0 0 0 0 0 0 127 0" result="hardAlpha"/>
<feOffset dy="4"/>
<feGaussianBlur stdDeviation="2"/>
<feComposite in2="hardAlpha" operator="out"/>
<feColorMatrix type="matrix" values="0 0 0 0 0 0 0 0 0 0 0 0 0 0 0 0 0 0 0.25 0"/>
<feBlend mode="normal" in2="BackgroundImageFix" result="effect1_dropShadow_2057_299"/>
<feBlend mode="normal" in="SourceGraphic" in2="effect1_dropShadow_2057_299" result="shape"/>
</filter>
<linearGradient id="paint0_linear_2057_299" x1="277.564" y1="-331.305" x2="530.311" y2="288.428" gradientUnits="userSpaceOnUse">
<stop offset="0.00887753" stop-color="#DEF9FA"/>
<stop offset="0.1723" stop-color="#BEF3F5"/>
<stop offset="0.4204" stop-color="#9DEDF0"/>
<stop offset="0.5512" stop-color="#7DE7EB"/>
<stop offset="0.7154" stop-color="#5CE1E6"/>
<stop offset="1" stop-color="#33BBCF"/>
</linearGradient>
<linearGradient id="paint1_linear_2057_299" x1="408.56" y1="500.222" x2="15.0086" y2="292.614" gradientUnits="userSpaceOnUse">
<stop offset="0.00887753" stop-color="#DEF9FA"/>
<stop offset="0.1723" stop-color="#BEF3F5"/>
<stop offset="0.4204" stop-color="#9DEDF0"/>
<stop offset="0.5512" stop-color="#7DE7EB"/>
<stop offset="0.7154" stop-color="#5CE1E6"/>
<stop offset="1" stop-color="#33BBCF"/>
</linearGradient>
<linearGradient id="paint2_linear_2057_299" x1="309.478" y1="348.484" x2="115.834" y2="246.332" gradientUnits="userSpaceOnUse">
<stop offset="0.00887753" stop-color="#DEF9FA"/>
<stop offset="0.1723" stop-color="#BEF3F5"/>
<stop offset="0.4204" stop-color="#9DEDF0"/>
<stop offset="0.5512" stop-color="#7DE7EB"/>
<stop offset="0.7154" stop-color="#5CE1E6"/>
<stop offset="1" stop-color="#33BBCF"/>
</linearGradient>
<clipPath id="clip0_2057_299">
<rect width="189" height="47" fill="white" transform="translate(292 24)"/>
</clipPath>
<clipPath id="clip1_2057_299">
<rect width="126" height="126" fill="white" transform="translate(292 198)"/>
</clipPath>
</defs>
</svg>
